<svg width="22" height="22" viewBox="0 0 22 22" fill="none" xmlns="http://www.w3.org/2000/svg">
<path d="M13.5 13.5H21V19.75C21 20.0815 20.8683 20.3995 20.6339 20.6339C20.3995 20.8683 20.0815 21 19.75 21H14.75C14.4185 21 14.1005 20.8683 13.8661 20.6339C13.6317 20.3995 13.5 20.0815 13.5 19.75V13.5ZM1 1H8.5V7.25C8.5 7.58152 8.3683 7.89946 8.13388 8.13388C7.89946 8.3683 7.58152 8.5 7.25 8.5H2.25C1.91848 8.5 1.60054 8.3683 1.36612 8.13388C1.1317 7.89946 1 7.58152 1 7.25V1Z" stroke="#5D6679" stroke-linecap="round" stroke-linejoin="round"/>
</svg>
