<svg width="256px" height="256px" viewBox="0 0 1024.00 1024.00" class="icon" version="1.1" xmlns="http://www.w3.org/2000/svg" fill="#000000" stroke="#000000" stroke-width="0.01024"><g id="SVGRepo_bgCarrier" stroke-width="0"></g><g id="SVGRepo_tracerCarrier" stroke-linecap="round" stroke-linejoin="round"></g><g id="SVGRepo_iconCarrier"><path d="M700.821504 542.152704c-16.154624 0-29.247488-13.09184-29.247488-29.247488 0-16.145408 13.092864-29.238272 29.247488-29.238272 16.146432 0 29.249536 13.092864 29.249536 29.238272 0 16.155648-13.103104 29.247488-29.249536 29.247488m-189.17888 0c-16.154624 0-29.24544-13.09184-29.24544-29.247488 0-16.145408 13.090816-29.238272 29.24544-29.238272 16.155648 0 29.247488 13.092864 29.247488 29.238272 0 16.155648-13.09184 29.247488-29.247488 29.247488m-189.179904 0c-16.146432 0-29.247488-13.09184-29.247488-29.247488 0-16.145408 13.101056-29.238272 29.247488-29.238272 16.154624 0 29.249536 13.092864 29.249536 29.238272 0 16.155648-13.094912 29.247488-29.249536 29.247488m483.74784-323.805184C727.455744 139.595776 622.98112 96.256 511.642624 96.256c-111.33952 0-215.812096 43.339776-294.566912 122.09152-152.20736 152.209408-162.78016 395.85792-26.24512 560.2304-13.39392 26.950656-34.88256 58.313728-66.76992 73.99424-15.32928 7.57248-23.957504 23.958528-21.317632 40.871936 2.64192 16.912384 15.68256 30.125056 32.594944 32.765952 7.923712 1.236992 19.201024 2.46784 32.937984 2.46784 36.827136 0 91.087872-8.636416 146.58048-48.61952 61.835264 33.29024 129.48992 49.496064 196.615168 49.496064 107.81184 0 214.573056-41.746432 294.912-122.08128 78.75072-78.75584 122.089472-183.2192 122.089472-294.567936 0-111.337472-43.52-215.812096-122.262528-294.557696" fill="#c2e0ff"></path><path d="M322.46272 442.706944c-38.71232 0-70.207488 31.491072-70.207488 70.198272 0 38.71232 31.495168 70.207488 70.207488 70.207488 38.713344 0 70.209536-31.495168 70.209536-70.207488 0-38.7072-31.496192-70.198272-70.209536-70.198272z m0 40.96c16.155648 0 29.249536 13.09184 29.249536 29.238272 0 16.155648-13.093888 29.247488-29.249536 29.247488-16.146432 0-29.247488-13.09184-29.247488-29.247488 0-16.146432 13.101056-29.238272 29.247488-29.238272z m378.35776-40.96c-38.711296 0-70.20544 31.491072-70.20544 70.198272 0 38.71232 31.494144 70.207488 70.20544 70.207488 38.714368 0 70.21056-31.495168 70.21056-70.207488 0-38.7072-31.496192-70.198272-70.209536-70.198272z m0 40.96c16.147456 0 29.25056 13.09184 29.25056 29.238272 0 16.155648-13.103104 29.247488-29.249536 29.247488-16.154624 0-29.246464-13.09184-29.246464-29.247488 0-16.146432 13.09184-29.238272 29.24544-29.238272z m-189.176832-40.96c-38.71232 0-70.207488 31.491072-70.207488 70.198272 0 38.71232 31.495168 70.207488 70.207488 70.207488 38.71232 0 70.20544-31.495168 70.20544-70.207488 0-38.7072-31.49312-70.198272-70.20544-70.198272z m0 40.96c16.154624 0 29.24544 13.09184 29.24544 29.238272 0 16.155648-13.090816 29.247488-29.24544 29.247488-16.155648 0-29.247488-13.09184-29.247488-29.247488 0-16.146432 13.09184-29.238272 29.247488-29.238272zM313.28256 855.95136l11.283456 6.075392c57.16992 30.779392 121.800704 47.048704 186.9056 47.048704 51.721216 0 102.1952-9.890816 150.024192-29.39904 48.992256-19.981312 92.86656-49.14688 130.405376-86.684672 74.862592-74.86464 116.09088-174.334976 116.09088-280.08448 0-105.63584-41.289728-205.10208-116.26496-280.078336-74.86464-74.862592-174.333952-116.09088-280.08448-116.09088-105.749504 0-205.21984 41.228288-280.085504 116.091904C161.662976 302.72512 120.670208 395.776 116.133888 494.83776c-4.528128 98.86208 27.594752 194.982912 90.44992 270.654464l8.521728 10.257408-5.935104 11.942912c-19.72736 39.69536-46.031872 68.486144-76.07296 83.258368-7.281664 3.597312-11.362304 11.373568-10.119168 19.334144 1.26976 8.132608 7.50592 14.4384 15.519744 15.688704 9.445376 1.475584 19.464192 2.224128 29.77792 2.224128 33.07008 0 83.268608-7.764992 134.60992-44.755968l10.396672-7.491584z m198.189056 94.08512c-67.64544 0-134.838272-15.920128-195.137536-46.1312-56.536064 37.178368-111.232 45.253632-148.058112 45.253632-12.423168 0-24.568832-0.913408-36.098048-2.7136-25.678848-4.009984-45.640704-24.039424-49.66912-49.841152-4.017152-25.739264 9.035776-50.81088 32.48128-62.39232 23.119872-11.369472 40.07424-33.518592 51.411968-53.334016-63.664128-81.78688-95.96928-183.473152-91.185152-287.91296 5.005312-109.29152 50.24256-211.961856 127.377408-289.098752C285.197312 121.266176 394.952704 75.776 511.643648 75.776c116.690944 0 226.446336 45.490176 309.04832 128.089088 82.710528 82.712576 128.26112 192.464896 128.26112 309.040128 0 116.691968-45.489152 226.44736-128.088064 309.04832-41.417728 41.41568-89.832448 73.595904-143.900672 95.648768-52.762624 21.520384-108.442624 32.432128-165.492736 32.432128z" fill="#1d1616"></path></g></svg>