<svg width="20" height="20" viewBox="0 0 20 20" fill="none" xmlns="http://www.w3.org/2000/svg">
<path d="M9.129 0L11.103 0.005C11.881 0.099 12.563 0.465 13.125 1.083C13.584 1.587 13.825 2.173 13.839 2.811H19.314C19.4968 2.81206 19.6718 2.88563 19.8004 3.01557C19.929 3.1455 20.0008 3.32117 20 3.504C20.0005 3.68665 19.9286 3.86207 19.8 3.99179C19.6714 4.1215 19.4967 4.19494 19.314 4.196L17.478 4.195V15.822C17.478 18.365 16.529 20 14.437 20H5.419C3.327 20 2.393 18.374 2.393 15.822V4.195H0.686C0.503695 4.19394 0.329216 4.12078 0.20068 3.99149C0.0721438 3.86221 -3.06329e-06 3.68731 0 3.505C0 3.122 0.307 2.813 0.686 2.813H6.156C6.17 2.299 6.361 1.778 6.71 1.263C7.23 0.495 8.042 0.074 9.129 0ZM16.106 4.195H3.764V15.822C3.764 17.71 4.284 18.616 5.419 18.616H14.437C15.576 18.616 16.107 17.702 16.107 15.822L16.106 4.195ZM6.716 6.34C7.094 6.34 7.401 6.65 7.401 7.032V15.082C7.40153 15.2647 7.32962 15.4401 7.20103 15.5698C7.07243 15.6995 6.89765 15.7729 6.715 15.774C6.53252 15.7727 6.358 15.6991 6.22962 15.5694C6.10124 15.4397 6.02947 15.2645 6.03 15.082V7.032C6.03 6.65 6.338 6.34 6.716 6.34ZM9.441 6.34C9.821 6.34 10.127 6.65 10.127 7.032V15.082C10.1275 15.2647 10.0556 15.4401 9.92703 15.5698C9.79843 15.6995 9.62365 15.7729 9.441 15.774C9.25852 15.7727 9.084 15.6991 8.95562 15.5694C8.82724 15.4397 8.75547 15.2645 8.756 15.082V7.032C8.756 6.65 9.063 6.34 9.441 6.34ZM12.169 6.34C12.547 6.34 12.854 6.65 12.854 7.032V15.082C12.8545 15.2645 12.7828 15.4397 12.6544 15.5694C12.526 15.6991 12.3515 15.7727 12.169 15.774C11.9863 15.7729 11.8116 15.6995 11.683 15.5698C11.5544 15.4401 11.4825 15.2647 11.483 15.082V7.032C11.4825 6.84935 11.5544 6.67393 11.683 6.54421C11.8116 6.4145 11.9863 6.34106 12.169 6.34ZM9.176 1.382C8.534 1.427 8.111 1.646 7.842 2.044C7.644 2.335 7.545 2.587 7.529 2.812L12.467 2.811C12.453 2.52 12.338 2.264 12.115 2.019C11.769 1.639 11.385 1.433 11.022 1.384L9.176 1.382Z" fill="#DA3E33"/>
</svg>
