<svg width="14" height="17" viewBox="0 0 14 17" fill="none" xmlns="http://www.w3.org/2000/svg">
<path d="M0.25 13.0939V16.3752H3.0625L11.3575 6.69769L8.545 3.41644L0.25 13.0939ZM13.5325 4.16019C13.602 4.07924 13.6572 3.98308 13.6948 3.87723C13.7325 3.77138 13.7518 3.65791 13.7518 3.54331C13.7518 3.42871 13.7325 3.31524 13.6948 3.20939C13.6572 3.10354 13.602 3.00738 13.5325 2.92644L11.7775 0.878935C11.7081 0.79782 11.6257 0.733466 11.535 0.689557C11.4442 0.645648 11.347 0.623047 11.2488 0.623047C11.1505 0.623047 11.0533 0.645648 10.9625 0.689557C10.8718 0.733466 10.7894 0.79782 10.72 0.878935L9.3475 2.48019L12.16 5.76144L13.5325 4.16019Z" fill="black"/>
</svg>
