<svg width="281" height="169" viewBox="0 0 281 169" fill="none" xmlns="http://www.w3.org/2000/svg">
<rect x="36.0742" width="195.846" height="158.481" fill="white"/>
<path fill-rule="evenodd" clip-rule="evenodd" d="M85.4283 106.182H156.716C157.12 106.182 157.513 106.138 157.891 106.054C158.27 106.138 158.663 106.182 159.066 106.182H199.802C202.831 106.182 205.286 103.699 205.286 100.635C205.286 97.5719 202.831 95.0885 199.802 95.0885H195.102C192.074 95.0885 189.618 92.6051 189.618 89.5417C189.618 86.4782 192.074 83.9948 195.102 83.9948H209.986C213.015 83.9948 215.47 81.5114 215.47 78.448C215.47 75.3846 213.015 72.9012 209.986 72.9012H192.752C195.781 72.9012 198.236 70.4178 198.236 67.3543C198.236 64.2909 195.781 61.8075 192.752 61.8075H142.615C145.644 61.8075 148.099 59.3241 148.099 56.2607C148.099 53.1973 145.644 50.7139 142.615 50.7139H97.9624C94.9339 50.7139 92.4787 53.1973 92.4787 56.2607C92.4787 59.3241 94.9339 61.8075 97.9624 61.8075H66.627C63.5985 61.8075 61.1433 64.2909 61.1433 67.3543C61.1433 70.4178 63.5985 72.9012 66.627 72.9012H86.2117C89.2402 72.9012 91.6953 75.3846 91.6953 78.448C91.6953 81.5114 89.2402 83.9948 86.2117 83.9948H54.8763C51.8477 83.9948 49.3926 86.4782 49.3926 89.5417C49.3926 92.6051 51.8477 95.0885 54.8763 95.0885H85.4283C82.3997 95.0885 79.9446 97.5719 79.9446 100.635C79.9446 103.699 82.3997 106.182 85.4283 106.182ZM213.12 106.182C216.149 106.182 218.604 103.699 218.604 100.635C218.604 97.5719 216.149 95.0885 213.12 95.0885C210.091 95.0885 207.636 97.5719 207.636 100.635C207.636 103.699 210.091 106.182 213.12 106.182Z" fill="#F3F7FF"/>
<path fill-rule="evenodd" clip-rule="evenodd" d="M124.69 88.9922C124.629 89.4306 124.597 89.8786 124.597 90.334C124.597 95.5856 128.806 99.8429 133.998 99.8429C139.189 99.8429 143.398 95.5856 143.398 90.334C143.398 89.8786 143.367 89.4306 143.305 88.9922H166.116V110.144C166.116 111.457 165.064 112.521 163.766 112.521H104.229C102.931 112.521 101.879 111.457 101.879 110.144V88.9922H124.69Z" fill="white"/>
<path fill-rule="evenodd" clip-rule="evenodd" d="M144.182 88.7493C144.182 94.4386 139.622 99.0506 133.998 99.0506C128.373 99.0506 123.814 94.4386 123.814 88.7493C123.814 88.565 123.818 88.3818 123.828 88.1999H101.879L109.368 65.8004C109.691 64.8348 110.587 64.1848 111.595 64.1848H156.401C157.408 64.1848 158.304 64.8348 158.627 65.8004L166.116 88.1999H144.167C144.177 88.3818 144.182 88.565 144.182 88.7493Z" fill="white"/>
<path fill-rule="evenodd" clip-rule="evenodd" d="M142.692 89.5057C142.692 93.9019 138.799 98.2581 133.998 98.2581C129.197 98.2581 125.304 93.9019 125.304 89.5057C125.304 89.3633 125.308 88.4293 125.316 88.2887H108.93L115.323 72.5648C115.599 71.8186 116.363 71.3164 117.224 71.3164H150.772C151.633 71.3164 152.397 71.8186 152.673 72.5648L159.066 88.2887H142.679C142.688 88.4293 142.692 89.3633 142.692 89.5057Z" fill="#E8F0FE"/>
<path fill-rule="evenodd" clip-rule="evenodd" d="M102.857 88.3628V109.352C102.857 110.118 103.471 110.739 104.228 110.739H163.766C164.523 110.739 165.137 110.118 165.137 109.352V88.3628L157.699 66.1177C157.51 65.5544 156.988 65.1753 156.4 65.1753H111.594C111.006 65.1753 110.484 65.5544 110.295 66.1177L102.857 88.3628Z" stroke="#1F64E7" stroke-width="2.5"/>
<path d="M112.845 87.9568C115.929 87.9568 119.257 87.9568 122.829 87.9568C124.299 87.9568 124.299 89.0016 124.299 89.5416C124.299 94.7932 128.605 99.0504 133.916 99.0504C139.227 99.0504 143.533 94.7932 143.533 89.5416C143.533 89.0016 143.533 87.9568 145.003 87.9568H164.548M107.027 87.9568H108.928H107.027Z" stroke="#1F64E7" stroke-width="2.5" stroke-linecap="round" stroke-linejoin="round"/>
<path d="M153.66 46.1993L144.964 56.0672M133.292 42.7898V56.0672V42.7898ZM112.846 46.1993L121.541 56.0672L112.846 46.1993Z" stroke="#75A4FE" stroke-width="2.5" stroke-linecap="round" stroke-linejoin="round"/>
<path d="M9.95289 136.48L10.0129 138.08V146H7.77289V131.28H8.05289L16.6929 140.92L16.6129 139.24V131.3H18.8529V146H18.5529L9.95289 136.48ZM26.1121 146.2C25.1654 146.2 24.3254 145.987 23.5921 145.56C22.8588 145.133 22.2921 144.553 21.8921 143.82C21.4921 143.087 21.2921 142.273 21.2921 141.38C21.2921 140.5 21.4854 139.693 21.8721 138.96C22.2721 138.227 22.8388 137.647 23.5721 137.22C24.3054 136.793 25.1521 136.58 26.1121 136.58C27.0721 136.58 27.9121 136.793 28.6321 137.22C29.3654 137.647 29.9254 138.227 30.3121 138.96C30.7121 139.693 30.9121 140.5 30.9121 141.38C30.9121 142.273 30.7121 143.087 30.3121 143.82C29.9121 144.553 29.3454 145.133 28.6121 145.56C27.8921 145.987 27.0588 146.2 26.1121 146.2ZM26.1721 144.44C26.9454 144.44 27.5521 144.153 27.9921 143.58C28.4454 143.007 28.6721 142.287 28.6721 141.42C28.6721 140.553 28.4321 139.827 27.9521 139.24C27.4721 138.64 26.8388 138.34 26.0521 138.34C25.2921 138.34 24.6788 138.633 24.2121 139.22C23.7588 139.807 23.5321 140.54 23.5321 141.42C23.5321 142.273 23.7788 142.993 24.2721 143.58C24.7654 144.153 25.3988 144.44 26.1721 144.44ZM38.2812 136.82H40.5212V146H38.2812V136.82ZM39.3812 135.1C38.9678 135.1 38.6212 134.96 38.3412 134.68C38.0612 134.4 37.9212 134.053 37.9212 133.64C37.9212 133.267 38.0612 132.947 38.3412 132.68C38.6212 132.413 38.9678 132.28 39.3812 132.28C39.7812 132.28 40.1212 132.413 40.4012 132.68C40.6812 132.947 40.8212 133.267 40.8212 133.64C40.8212 134.053 40.6812 134.4 40.4012 134.68C40.1345 134.96 39.7945 135.1 39.3812 135.1ZM44.3118 138.58H42.6918V136.82H44.3118V133.08L46.4918 132.6V136.82H48.6118V138.58H46.4918V146H44.3118V138.58ZM54.7073 146.2C53.6139 146.2 52.7006 145.987 51.9673 145.56C51.2339 145.12 50.6939 144.54 50.3473 143.82C50.0006 143.087 49.8273 142.287 49.8273 141.42C49.8273 140.447 50.0273 139.593 50.4273 138.86C50.8406 138.127 51.4073 137.567 52.1273 137.18C52.8473 136.78 53.6606 136.58 54.5673 136.58C55.9806 136.58 57.0273 136.973 57.7073 137.76C58.4006 138.533 58.7473 139.627 58.7473 141.04C58.7473 141.4 58.7273 141.773 58.6873 142.16H52.0873C52.2339 142.973 52.5206 143.56 52.9473 143.92C53.3873 144.28 53.9939 144.46 54.7673 144.46C55.4073 144.46 55.9339 144.407 56.3473 144.3C56.7606 144.193 57.1406 144.047 57.4873 143.86L58.1473 145.4C57.8139 145.613 57.3606 145.8 56.7873 145.96C56.2139 146.12 55.5206 146.2 54.7073 146.2ZM56.6473 140.66C56.6606 139.833 56.4806 139.253 56.1073 138.92C55.7339 138.573 55.2006 138.4 54.5073 138.4C53.1073 138.4 52.3006 139.153 52.0873 140.66H56.6473ZM61.0118 136.82H63.1718V138.48C63.4651 137.853 63.8918 137.38 64.4518 137.06C65.0251 136.74 65.6785 136.58 66.4118 136.58C68.0518 136.593 69.0585 137.16 69.4318 138.28C69.7251 137.76 70.1651 137.347 70.7518 137.04C71.3385 136.733 71.9585 136.58 72.6118 136.58C73.5718 136.58 74.2985 136.767 74.7918 137.14C75.2851 137.5 75.6118 138.02 75.7718 138.7C75.9451 139.367 76.0318 140.267 76.0318 141.4V146H73.8518V141.38C73.8518 140.3 73.7385 139.527 73.5118 139.06C73.2985 138.593 72.8785 138.36 72.2518 138.36C71.4118 138.36 70.7718 138.647 70.3318 139.22C69.9051 139.78 69.6918 140.52 69.6918 141.44V146H67.5318V141.06C67.5318 140.353 67.5051 139.827 67.4518 139.48C67.3985 139.133 67.2518 138.86 67.0118 138.66C66.7718 138.46 66.3851 138.36 65.8518 138.36C65.3851 138.36 64.9451 138.5 64.5318 138.78C64.1318 139.06 63.8051 139.44 63.5518 139.92C63.3118 140.387 63.1918 140.893 63.1918 141.44V146H61.0118V136.82ZM81.9452 146.2C81.3052 146.2 80.6386 146.12 79.9452 145.96C79.2652 145.787 78.7786 145.587 78.4852 145.36L79.2052 143.66C80.0052 144.22 80.9186 144.5 81.9452 144.5C82.9719 144.5 83.4852 144.2 83.4852 143.6C83.4852 143.333 83.3786 143.127 83.1652 142.98C82.9519 142.833 82.5719 142.66 82.0252 142.46L81.2652 142.18C80.4652 141.86 79.8319 141.48 79.3652 141.04C78.8986 140.587 78.6652 139.993 78.6652 139.26C78.6652 138.42 78.9919 137.767 79.6452 137.3C80.3119 136.82 81.1986 136.58 82.3052 136.58C82.8519 136.58 83.3852 136.64 83.9052 136.76C84.4386 136.88 84.8452 137.033 85.1252 137.22L84.3452 138.94C84.1719 138.767 83.8919 138.62 83.5052 138.5C83.1319 138.367 82.7119 138.3 82.2452 138.3C81.2986 138.3 80.8252 138.587 80.8252 139.16C80.8252 139.48 80.9519 139.727 81.2052 139.9C81.4586 140.06 81.8719 140.24 82.4452 140.44C82.4986 140.453 82.7052 140.527 83.0652 140.66C83.9186 140.993 84.5519 141.373 84.9652 141.8C85.3786 142.227 85.5852 142.773 85.5852 143.44C85.5852 144.347 85.2386 145.033 84.5452 145.5C83.8652 145.967 82.9986 146.2 81.9452 146.2ZM92.8305 131.3H94.9305V136.82L94.8505 138.52C95.1039 137.96 95.5105 137.5 96.0705 137.14C96.6305 136.767 97.2839 136.58 98.0305 136.58C98.9772 136.58 99.7039 136.78 100.211 137.18C100.717 137.567 101.057 138.113 101.231 138.82C101.404 139.527 101.491 140.447 101.491 141.58V146H99.3505V141.56C99.3505 140.787 99.3039 140.18 99.2105 139.74C99.1305 139.3 98.9572 138.967 98.6905 138.74C98.4372 138.513 98.0639 138.4 97.5705 138.4C97.1705 138.4 96.7639 138.52 96.3505 138.76C95.9505 139 95.6172 139.353 95.3505 139.82C95.0839 140.273 94.9505 140.813 94.9505 141.44V146H92.8305V131.3ZM108.294 146.2C107.468 146.2 106.701 146.007 105.994 145.62C105.301 145.22 104.741 144.66 104.314 143.94C103.901 143.207 103.694 142.353 103.694 141.38C103.694 140.42 103.874 139.58 104.234 138.86C104.608 138.14 105.134 137.58 105.814 137.18C106.494 136.78 107.294 136.58 108.214 136.58C108.748 136.58 109.248 136.673 109.714 136.86C110.181 137.047 110.574 137.28 110.894 137.56C111.214 137.827 111.428 138.093 111.534 138.36L111.574 136.82H113.634V146H111.594L111.554 144.38C111.328 144.86 110.914 145.287 110.314 145.66C109.714 146.02 109.041 146.2 108.294 146.2ZM108.654 144.4C109.414 144.4 110.054 144.14 110.574 143.62C111.094 143.087 111.354 142.393 111.354 141.54V141.4C111.354 140.827 111.234 140.313 110.994 139.86C110.754 139.407 110.428 139.053 110.014 138.8C109.601 138.547 109.148 138.42 108.654 138.42C107.801 138.42 107.141 138.7 106.674 139.26C106.208 139.807 105.974 140.52 105.974 141.4C105.974 142.293 106.201 143.02 106.654 143.58C107.121 144.127 107.788 144.4 108.654 144.4ZM119.699 146.2C119.059 146.2 118.392 146.12 117.699 145.96C117.019 145.787 116.532 145.587 116.239 145.36L116.959 143.66C117.759 144.22 118.672 144.5 119.699 144.5C120.726 144.5 121.239 144.2 121.239 143.6C121.239 143.333 121.132 143.127 120.919 142.98C120.706 142.833 120.326 142.66 119.779 142.46L119.019 142.18C118.219 141.86 117.586 141.48 117.119 141.04C116.652 140.587 116.419 139.993 116.419 139.26C116.419 138.42 116.746 137.767 117.399 137.3C118.066 136.82 118.952 136.58 120.059 136.58C120.606 136.58 121.139 136.64 121.659 136.76C122.192 136.88 122.599 137.033 122.879 137.22L122.099 138.94C121.926 138.767 121.646 138.62 121.259 138.5C120.886 138.367 120.466 138.3 119.999 138.3C119.052 138.3 118.579 138.587 118.579 139.16C118.579 139.48 118.706 139.727 118.959 139.9C119.212 140.06 119.626 140.24 120.199 140.44C120.252 140.453 120.459 140.527 120.819 140.66C121.672 140.993 122.306 141.373 122.719 141.8C123.132 142.227 123.339 142.773 123.339 143.44C123.339 144.347 122.992 145.033 122.299 145.5C121.619 145.967 120.752 146.2 119.699 146.2ZM135.924 146.2C135.178 146.2 134.504 146.02 133.904 145.66C133.318 145.287 132.911 144.86 132.684 144.38L132.644 146H130.564V131.3H132.684V136.96L132.584 138.52C132.811 137.987 133.251 137.533 133.904 137.16C134.571 136.773 135.291 136.58 136.064 136.58C136.971 136.58 137.758 136.787 138.424 137.2C139.104 137.6 139.624 138.167 139.984 138.9C140.344 139.62 140.524 140.46 140.524 141.42C140.524 142.393 140.311 143.24 139.884 143.96C139.471 144.68 138.911 145.233 138.204 145.62C137.511 146.007 136.751 146.2 135.924 146.2ZM135.564 144.4C136.431 144.4 137.098 144.127 137.564 143.58C138.031 143.02 138.264 142.3 138.264 141.42C138.264 140.527 138.031 139.807 137.564 139.26C137.111 138.7 136.444 138.42 135.564 138.42C134.804 138.42 134.164 138.687 133.644 139.22C133.124 139.74 132.864 140.427 132.864 141.28V141.42C132.864 141.993 132.984 142.507 133.224 142.96C133.478 143.413 133.804 143.767 134.204 144.02C134.618 144.273 135.071 144.4 135.564 144.4ZM147.168 146.2C146.075 146.2 145.162 145.987 144.428 145.56C143.695 145.12 143.155 144.54 142.808 143.82C142.462 143.087 142.288 142.287 142.288 141.42C142.288 140.447 142.488 139.593 142.888 138.86C143.302 138.127 143.868 137.567 144.588 137.18C145.308 136.78 146.122 136.58 147.028 136.58C148.442 136.58 149.488 136.973 150.168 137.76C150.862 138.533 151.208 139.627 151.208 141.04C151.208 141.4 151.188 141.773 151.148 142.16H144.548C144.695 142.973 144.982 143.56 145.408 143.92C145.848 144.28 146.455 144.46 147.228 144.46C147.868 144.46 148.395 144.407 148.808 144.3C149.222 144.193 149.602 144.047 149.948 143.86L150.608 145.4C150.275 145.613 149.822 145.8 149.248 145.96C148.675 146.12 147.982 146.2 147.168 146.2ZM149.108 140.66C149.122 139.833 148.942 139.253 148.568 138.92C148.195 138.573 147.662 138.4 146.968 138.4C145.568 138.4 144.762 139.153 144.548 140.66H149.108ZM157.813 146.2C156.719 146.2 155.806 145.987 155.073 145.56C154.339 145.12 153.799 144.54 153.453 143.82C153.106 143.087 152.933 142.287 152.933 141.42C152.933 140.447 153.133 139.593 153.533 138.86C153.946 138.127 154.513 137.567 155.233 137.18C155.953 136.78 156.766 136.58 157.673 136.58C159.086 136.58 160.133 136.973 160.813 137.76C161.506 138.533 161.853 139.627 161.853 141.04C161.853 141.4 161.833 141.773 161.793 142.16H155.193C155.339 142.973 155.626 143.56 156.053 143.92C156.493 144.28 157.099 144.46 157.873 144.46C158.513 144.46 159.039 144.407 159.453 144.3C159.866 144.193 160.246 144.047 160.593 143.86L161.253 145.4C160.919 145.613 160.466 145.8 159.893 145.96C159.319 146.12 158.626 146.2 157.813 146.2ZM159.753 140.66C159.766 139.833 159.586 139.253 159.213 138.92C158.839 138.573 158.306 138.4 157.613 138.4C156.213 138.4 155.406 139.153 155.193 140.66H159.753ZM164.117 136.82H166.237L166.257 138.5C166.511 137.94 166.911 137.48 167.457 137.12C168.004 136.76 168.644 136.58 169.377 136.58C170.324 136.58 171.051 136.78 171.557 137.18C172.064 137.567 172.404 138.113 172.577 138.82C172.751 139.527 172.837 140.447 172.837 141.58V146H170.677V141.64C170.677 140.48 170.564 139.647 170.337 139.14C170.111 138.62 169.644 138.36 168.937 138.36C168.537 138.36 168.131 138.487 167.717 138.74C167.304 138.98 166.957 139.333 166.677 139.8C166.411 140.267 166.277 140.813 166.277 141.44V146H164.117V136.82ZM180.684 136.82H182.924V146H180.684V136.82ZM181.784 135.1C181.37 135.1 181.024 134.96 180.744 134.68C180.464 134.4 180.324 134.053 180.324 133.64C180.324 133.267 180.464 132.947 180.744 132.68C181.024 132.413 181.37 132.28 181.784 132.28C182.184 132.28 182.524 132.413 182.804 132.68C183.084 132.947 183.224 133.267 183.224 133.64C183.224 134.053 183.084 134.4 182.804 134.68C182.537 134.96 182.197 135.1 181.784 135.1ZM189.074 146.2C188.434 146.2 187.767 146.12 187.074 145.96C186.394 145.787 185.907 145.587 185.614 145.36L186.334 143.66C187.134 144.22 188.047 144.5 189.074 144.5C190.101 144.5 190.614 144.2 190.614 143.6C190.614 143.333 190.507 143.127 190.294 142.98C190.081 142.833 189.701 142.66 189.154 142.46L188.394 142.18C187.594 141.86 186.961 141.48 186.494 141.04C186.027 140.587 185.794 139.993 185.794 139.26C185.794 138.42 186.121 137.767 186.774 137.3C187.441 136.82 188.327 136.58 189.434 136.58C189.981 136.58 190.514 136.64 191.034 136.76C191.567 136.88 191.974 137.033 192.254 137.22L191.474 138.94C191.301 138.767 191.021 138.62 190.634 138.5C190.261 138.367 189.841 138.3 189.374 138.3C188.427 138.3 187.954 138.587 187.954 139.16C187.954 139.48 188.081 139.727 188.334 139.9C188.587 140.06 189.001 140.24 189.574 140.44C189.627 140.453 189.834 140.527 190.194 140.66C191.047 140.993 191.681 141.373 192.094 141.8C192.507 142.227 192.714 142.773 192.714 143.44C192.714 144.347 192.367 145.033 191.674 145.5C190.994 145.967 190.127 146.2 189.074 146.2ZM198.117 146.2C197.477 146.2 196.81 146.12 196.117 145.96C195.437 145.787 194.95 145.587 194.657 145.36L195.377 143.66C196.177 144.22 197.09 144.5 198.117 144.5C199.144 144.5 199.657 144.2 199.657 143.6C199.657 143.333 199.55 143.127 199.337 142.98C199.124 142.833 198.744 142.66 198.197 142.46L197.437 142.18C196.637 141.86 196.004 141.48 195.537 141.04C195.07 140.587 194.837 139.993 194.837 139.26C194.837 138.42 195.164 137.767 195.817 137.3C196.484 136.82 197.37 136.58 198.477 136.58C199.024 136.58 199.557 136.64 200.077 136.76C200.61 136.88 201.017 137.033 201.297 137.22L200.517 138.94C200.344 138.767 200.064 138.62 199.677 138.5C199.304 138.367 198.884 138.3 198.417 138.3C197.47 138.3 196.997 138.587 196.997 139.16C196.997 139.48 197.124 139.727 197.377 139.9C197.63 140.06 198.044 140.24 198.617 140.44C198.67 140.453 198.877 140.527 199.237 140.66C200.09 140.993 200.724 141.373 201.137 141.8C201.55 142.227 201.757 142.773 201.757 143.44C201.757 144.347 201.41 145.033 200.717 145.5C200.037 145.967 199.17 146.2 198.117 146.2ZM207.18 146.2C205.913 146.2 205.04 145.827 204.56 145.08C204.093 144.333 203.86 143.293 203.86 141.96V136.82H206.02V141.42C206.02 142.18 206.06 142.773 206.14 143.2C206.233 143.613 206.407 143.92 206.66 144.12C206.927 144.32 207.32 144.42 207.84 144.42C208.213 144.42 208.573 144.313 208.92 144.1C209.267 143.887 209.547 143.6 209.76 143.24C209.987 142.867 210.1 142.46 210.1 142.02V136.82H212.24V146H210.48L210.24 144.66C209.907 145.18 209.487 145.567 208.98 145.82C208.487 146.073 207.887 146.2 207.18 146.2ZM219.453 146.2C218.36 146.2 217.447 145.987 216.713 145.56C215.98 145.12 215.44 144.54 215.093 143.82C214.747 143.087 214.573 142.287 214.573 141.42C214.573 140.447 214.773 139.593 215.173 138.86C215.587 138.127 216.153 137.567 216.873 137.18C217.593 136.78 218.407 136.58 219.313 136.58C220.727 136.58 221.773 136.973 222.453 137.76C223.147 138.533 223.493 139.627 223.493 141.04C223.493 141.4 223.473 141.773 223.433 142.16H216.833C216.98 142.973 217.267 143.56 217.693 143.92C218.133 144.28 218.74 144.46 219.513 144.46C220.153 144.46 220.68 144.407 221.093 144.3C221.507 144.193 221.887 144.047 222.233 143.86L222.893 145.4C222.56 145.613 222.107 145.8 221.533 145.96C220.96 146.12 220.267 146.2 219.453 146.2ZM221.393 140.66C221.407 139.833 221.227 139.253 220.853 138.92C220.48 138.573 219.947 138.4 219.253 138.4C217.853 138.4 217.047 139.153 216.833 140.66H221.393ZM229.818 146.2C228.991 146.2 228.225 146.007 227.518 145.62C226.825 145.22 226.265 144.66 225.838 143.94C225.425 143.207 225.218 142.353 225.218 141.38C225.218 139.927 225.625 138.767 226.438 137.9C227.251 137.02 228.351 136.58 229.738 136.58C230.511 136.58 231.218 136.773 231.858 137.16C232.498 137.533 232.931 137.987 233.158 138.52L233.058 136.96V131.3H235.178V146H233.118L233.078 144.38C232.851 144.86 232.438 145.287 231.838 145.66C231.238 146.02 230.565 146.2 229.818 146.2ZM230.178 144.38C230.938 144.38 231.578 144.12 232.098 143.6C232.618 143.067 232.878 142.373 232.878 141.52V141.38C232.878 140.807 232.758 140.293 232.518 139.84C232.278 139.387 231.951 139.033 231.538 138.78C231.125 138.527 230.671 138.4 230.178 138.4C229.325 138.4 228.665 138.68 228.198 139.24C227.731 139.787 227.498 140.5 227.498 141.38C227.498 142.273 227.725 143 228.178 143.56C228.645 144.107 229.311 144.38 230.178 144.38ZM245.585 146.28L241.785 136.82H244.225L246.185 142.66L246.625 144.08L247.065 142.66L249.125 136.82H251.485L245.845 151.04H243.605L245.585 146.28ZM257.227 146.2C256.133 146.2 255.22 145.987 254.487 145.56C253.753 145.12 253.213 144.54 252.867 143.82C252.52 143.087 252.347 142.287 252.347 141.42C252.347 140.447 252.547 139.593 252.947 138.86C253.36 138.127 253.927 137.567 254.647 137.18C255.367 136.78 256.18 136.58 257.087 136.58C258.5 136.58 259.547 136.973 260.227 137.76C260.92 138.533 261.267 139.627 261.267 141.04C261.267 141.4 261.247 141.773 261.207 142.16H254.607C254.753 142.973 255.04 143.56 255.467 143.92C255.907 144.28 256.513 144.46 257.287 144.46C257.927 144.46 258.453 144.407 258.867 144.3C259.28 144.193 259.66 144.047 260.007 143.86L260.667 145.4C260.333 145.613 259.88 145.8 259.307 145.96C258.733 146.12 258.04 146.2 257.227 146.2ZM259.167 140.66C259.18 139.833 259 139.253 258.627 138.92C258.253 138.573 257.72 138.4 257.027 138.4C255.627 138.4 254.82 139.153 254.607 140.66H259.167ZM264.331 138.58H262.711V136.82H264.331V133.08L266.511 132.6V136.82H268.631V138.58H266.511V146H264.331V138.58ZM270.627 130.82H273.187L272.807 140.78H271.007L270.627 130.82ZM271.867 146.22C271.467 146.22 271.127 146.087 270.847 145.82C270.567 145.54 270.427 145.193 270.427 144.78C270.427 144.38 270.56 144.04 270.827 143.76C271.107 143.48 271.453 143.34 271.867 143.34C272.28 143.34 272.62 143.48 272.887 143.76C273.167 144.04 273.307 144.38 273.307 144.78C273.307 145.193 273.167 145.54 272.887 145.82C272.62 146.087 272.28 146.22 271.867 146.22Z" fill="#4A4A4A"/>
</svg>
