<svg width="340" height="200" viewBox="0 0 340 200" fill="none" xmlns="http://www.w3.org/2000/svg">
<rect x="43" width="250" height="200" fill="white"/>
<path fill-rule="evenodd" clip-rule="evenodd" d="M250 65C253.866 65 257 68.134 257 72C257 75.866 253.866 79 250 79H210C213.866 79 217 82.134 217 86C217 89.866 213.866 93 210 93H232C235.866 93 239 96.134 239 100C239 103.866 235.866 107 232 107H221.826C216.952 107 213 110.134 213 114C213 116.577 215 118.911 219 121C222.866 121 226 124.134 226 128C226 131.866 222.866 135 219 135H136C132.134 135 129 131.866 129 128C129 124.134 132.134 121 136 121H97C93.134 121 90 117.866 90 114C90 110.134 93.134 107 97 107H137C140.866 107 144 103.866 144 100C144 96.134 140.866 93 137 93H112C108.134 93 105 89.866 105 86C105 82.134 108.134 79 112 79H152C148.134 79 145 75.866 145 72C145 68.134 148.134 65 152 65H250ZM250 93C253.866 93 257 96.134 257 100C257 103.866 253.866 107 250 107C246.134 107 243 103.866 243 100C243 96.134 246.134 93 250 93Z" fill="#F3F7FF"/>
<path fill-rule="evenodd" clip-rule="evenodd" d="M196.671 63.9999L205.973 131.843L206.809 138.649C207.078 140.842 205.519 142.837 203.326 143.107L144.766 150.297C142.573 150.566 140.578 149.007 140.308 146.814L131.293 73.3867C131.158 72.2904 131.938 71.2925 133.034 71.1579C133.041 71.157 133.048 71.1562 133.055 71.1554L137.913 70.6104M141.842 70.1698L146.429 69.6552Z" fill="white"/>
<path d="M197.91 63.8302C197.816 63.1462 197.185 62.6678 196.502 62.7615C195.818 62.8553 195.339 63.4858 195.433 64.1697L197.91 63.8302ZM205.973 131.843L207.214 131.69C207.213 131.685 207.212 131.679 207.212 131.673L205.973 131.843ZM206.809 138.649L208.05 138.497L206.809 138.649ZM203.326 143.107L203.479 144.347L203.326 143.107ZM144.766 150.297L144.918 151.538L144.766 150.297ZM140.308 146.814L141.549 146.662L140.308 146.814ZM133.055 71.1554L133.194 72.3976L133.055 71.1554ZM138.052 71.8527C138.738 71.7757 139.232 71.1572 139.155 70.4711C139.078 69.7851 138.46 69.2913 137.774 69.3682L138.052 71.8527ZM141.702 68.9276C141.016 69.0045 140.522 69.6231 140.599 70.3091C140.676 70.9952 141.295 71.4889 141.981 71.412L141.702 68.9276ZM146.568 70.8974C147.254 70.8205 147.748 70.2019 147.671 69.5159C147.594 68.8298 146.975 68.3361 146.289 68.413L146.568 70.8974ZM195.433 64.1697L204.735 132.012L207.212 131.673L197.91 63.8302L195.433 64.1697ZM204.733 131.995L205.568 138.801L208.05 138.497L207.214 131.69L204.733 131.995ZM205.568 138.801C205.753 140.309 204.681 141.681 203.174 141.866L203.479 144.347C206.356 143.994 208.403 141.375 208.05 138.497L205.568 138.801ZM203.174 141.866L144.614 149.056L144.918 151.538L203.479 144.347L203.174 141.866ZM144.614 149.056C143.106 149.241 141.734 148.169 141.549 146.662L139.068 146.967C139.421 149.844 142.04 151.891 144.918 151.538L144.614 149.056ZM141.549 146.662L132.533 73.2344L130.052 73.539L139.068 146.967L141.549 146.662ZM132.533 73.2344C132.483 72.8232 132.775 72.449 133.186 72.3986L132.882 69.9172C131.1 70.1359 129.833 71.7575 130.052 73.539L132.533 73.2344ZM133.186 72.3986C133.189 72.3982 133.191 72.3979 133.194 72.3976L132.915 69.9132C132.904 69.9145 132.893 69.9158 132.882 69.9172L133.186 72.3986ZM133.194 72.3976L138.052 71.8527L137.774 69.3682L132.915 69.9132L133.194 72.3976ZM141.981 71.412L146.568 70.8974L146.289 68.413L141.702 68.9276L141.981 71.412Z" fill="#1F64E7"/>
<path fill-rule="evenodd" clip-rule="evenodd" d="M194.141 68.2691L202.56 129.753L203.318 135.921C203.562 137.908 202.168 139.714 200.204 139.956L147.762 146.395C145.798 146.636 144.009 145.22 143.765 143.233L135.615 76.8567C135.48 75.7603 136.26 74.7625 137.356 74.6278L143.844 73.8313" fill="#E8F0FE"/>
<path d="M153.672 51.25H199.229C199.958 51.25 200.657 51.5395 201.173 52.0549L214.616 65.4898C215.132 66.0056 215.422 66.7053 215.422 67.4349V130C215.422 131.519 214.191 132.75 212.672 132.75H153.672C152.153 132.75 150.922 131.519 150.922 130V54C150.922 52.4812 152.153 51.25 153.672 51.25Z" fill="white" stroke="#1F64E7" stroke-width="2.5"/>
<path d="M199.672 52.4028V64C199.672 65.6569 201.015 67 202.672 67H210.605" stroke="#1F64E7" stroke-width="2.5" stroke-linecap="round" stroke-linejoin="round"/>
<path d="M161 118H187M161 67H187H161ZM161 79H204H161ZM161 92H204H161ZM161 105H204H161Z" stroke="#75A4FE" stroke-width="2.5" stroke-linecap="round" stroke-linejoin="round"/>
<path d="M75.2216 174.06V188.28H75.0216L68.3416 180.66L67.7216 179.86L67.8216 181.8V188H65.3616V173.82H65.5816L72.1616 181.5L72.8616 182.41L72.7616 180.5V174.06H75.2216ZM82.3443 188.2C81.371 188.2 80.541 187.993 79.8543 187.58C79.1676 187.167 78.6443 186.573 78.2843 185.8C77.9243 185.02 77.7443 184.087 77.7443 183C77.7443 181.913 77.9276 180.98 78.2943 180.2C78.6676 179.42 79.2043 178.827 79.9043 178.42C80.611 178.007 81.451 177.8 82.4243 177.8C83.391 177.8 84.211 178.013 84.8843 178.44C85.5643 178.86 86.0776 179.46 86.4243 180.24C86.771 181.02 86.9443 181.94 86.9443 183C86.9443 184.053 86.7643 184.973 86.4043 185.76C86.0443 186.54 85.5176 187.143 84.8243 187.57C84.1376 187.99 83.311 188.2 82.3443 188.2ZM82.3843 186.2C83.0043 186.2 83.4743 185.93 83.7943 185.39C84.121 184.85 84.2843 184.053 84.2843 183C84.2843 181.94 84.121 181.14 83.7943 180.6C83.4743 180.053 83.0043 179.78 82.3843 179.78C81.731 179.78 81.2376 180.037 80.9043 180.55C80.571 181.063 80.4043 181.88 80.4043 183C80.4043 184.12 80.571 184.933 80.9043 185.44C81.2376 185.947 81.731 186.2 82.3843 186.2ZM98.0318 188.28C97.5718 188.28 97.1551 188.18 96.7818 187.98C96.4151 187.773 96.1118 187.5 95.8718 187.16C95.6318 186.813 95.4585 186.433 95.3518 186.02V188H93.1518V172.8H95.5518V178.04L95.3518 179.76C95.4518 179.333 95.6551 178.97 95.9618 178.67C96.2751 178.37 96.6351 178.147 97.0418 178C97.4485 177.853 97.8518 177.78 98.2518 177.78C99.4918 177.78 100.428 178.22 101.062 179.1C101.695 179.973 102.012 181.267 102.012 182.98C102.012 184.133 101.835 185.11 101.482 185.91C101.135 186.703 100.662 187.297 100.062 187.69C99.4618 188.083 98.7851 188.28 98.0318 188.28ZM97.4518 186.3C97.7985 186.3 98.1185 186.187 98.4118 185.96C98.7051 185.733 98.9418 185.373 99.1218 184.88C99.3018 184.38 99.3918 183.747 99.3918 182.98C99.3918 182.267 99.3051 181.673 99.1318 181.2C98.9651 180.727 98.7385 180.38 98.4518 180.16C98.1651 179.933 97.8451 179.82 97.4918 179.82C97.0918 179.82 96.7485 179.963 96.4618 180.25C96.1751 180.537 95.9585 180.933 95.8118 181.44C95.6651 181.94 95.5918 182.507 95.5918 183.14C95.5918 183.767 95.6651 184.32 95.8118 184.8C95.9651 185.273 96.1818 185.643 96.4618 185.91C96.7418 186.17 97.0718 186.3 97.4518 186.3ZM104.281 173.76H107.081V176.42H104.281V173.76ZM104.381 178.04H106.981V188H104.381V178.04ZM110.006 172.8H112.446V188H110.006V172.8ZM115.495 172.8H117.935V188H115.495V172.8ZM123.663 188.18C122.71 188.18 121.96 188.063 121.413 187.83C120.873 187.59 120.49 187.333 120.263 187.06L121.003 185.16C121.856 185.867 122.763 186.22 123.723 186.22C124.156 186.22 124.476 186.133 124.683 185.96C124.896 185.78 125.003 185.56 125.003 185.3C125.003 185.02 124.82 184.763 124.453 184.53C124.093 184.29 123.556 184.013 122.843 183.7C122.383 183.5 121.983 183.29 121.643 183.07C121.303 182.85 121.006 182.553 120.753 182.18C120.506 181.8 120.383 181.34 120.383 180.8C120.383 180.2 120.53 179.677 120.823 179.23C121.123 178.783 121.556 178.44 122.123 178.2C122.69 177.96 123.37 177.84 124.163 177.84C124.636 177.84 125.08 177.893 125.493 178C125.913 178.1 126.27 178.227 126.563 178.38C126.856 178.527 127.07 178.667 127.203 178.8L126.523 180.6C126.216 180.367 125.863 180.17 125.463 180.01C125.07 179.843 124.663 179.76 124.243 179.76C123.743 179.76 123.39 179.827 123.183 179.96C122.983 180.087 122.883 180.3 122.883 180.6C122.883 180.9 123.03 181.15 123.323 181.35C123.623 181.55 124.083 181.773 124.703 182.02C125.596 182.373 126.283 182.793 126.763 183.28C127.243 183.76 127.483 184.347 127.483 185.04C127.483 185.62 127.35 186.147 127.083 186.62C126.823 187.087 126.406 187.463 125.833 187.75C125.266 188.037 124.543 188.18 123.663 188.18ZM138.902 177.8C139.882 177.8 140.622 178.117 141.122 178.75C141.629 179.377 141.882 180.267 141.882 181.42V188H139.322V181.68C139.322 181.12 139.189 180.67 138.922 180.33C138.655 179.99 138.289 179.82 137.822 179.82C137.509 179.82 137.212 179.9 136.932 180.06C136.659 180.22 136.439 180.443 136.272 180.73C136.105 181.01 136.022 181.327 136.022 181.68V188H133.562V172.76H135.922V177.8L135.872 179.3C136.559 178.3 137.569 177.8 138.902 177.8ZM146.927 188.28C146.334 188.28 145.834 188.147 145.427 187.88C145.021 187.613 144.714 187.253 144.507 186.8C144.307 186.347 144.207 185.84 144.207 185.28C144.207 184.793 144.367 184.31 144.687 183.83C145.014 183.343 145.591 182.93 146.417 182.59C147.244 182.25 148.361 182.08 149.767 182.08V181.62C149.767 181.073 149.634 180.65 149.367 180.35C149.107 180.05 148.647 179.9 147.987 179.9C147.467 179.9 146.957 179.99 146.457 180.17C145.964 180.343 145.601 180.56 145.367 180.82L144.567 178.9C145.021 178.593 145.584 178.333 146.257 178.12C146.931 177.907 147.647 177.8 148.407 177.8C149.361 177.8 150.114 177.947 150.667 178.24C151.227 178.533 151.621 178.947 151.847 179.48C152.074 180.013 152.187 180.673 152.187 181.46V188H150.047L149.867 186.58C149.514 187.153 149.094 187.58 148.607 187.86C148.127 188.14 147.567 188.28 146.927 188.28ZM147.987 186.36C148.294 186.36 148.617 186.237 148.957 185.99C149.297 185.743 149.567 185.433 149.767 185.06V183.64C149.674 183.627 149.514 183.62 149.287 183.62C148.614 183.62 148.011 183.733 147.477 183.96C146.951 184.18 146.687 184.54 146.687 185.04C146.687 185.513 146.791 185.853 146.997 186.06C147.211 186.26 147.541 186.36 147.987 186.36ZM157.589 188.18C156.635 188.18 155.885 188.063 155.339 187.83C154.799 187.59 154.415 187.333 154.189 187.06L154.929 185.16C155.782 185.867 156.689 186.22 157.649 186.22C158.082 186.22 158.402 186.133 158.609 185.96C158.822 185.78 158.929 185.56 158.929 185.3C158.929 185.02 158.745 184.763 158.379 184.53C158.019 184.29 157.482 184.013 156.769 183.7C156.309 183.5 155.909 183.29 155.569 183.07C155.229 182.85 154.932 182.553 154.679 182.18C154.432 181.8 154.309 181.34 154.309 180.8C154.309 180.2 154.455 179.677 154.749 179.23C155.049 178.783 155.482 178.44 156.049 178.2C156.615 177.96 157.295 177.84 158.089 177.84C158.562 177.84 159.005 177.893 159.419 178C159.839 178.1 160.195 178.227 160.489 178.38C160.782 178.527 160.995 178.667 161.129 178.8L160.449 180.6C160.142 180.367 159.789 180.17 159.389 180.01C158.995 179.843 158.589 179.76 158.169 179.76C157.669 179.76 157.315 179.827 157.109 179.96C156.909 180.087 156.809 180.3 156.809 180.6C156.809 180.9 156.955 181.15 157.249 181.35C157.549 181.55 158.009 181.773 158.629 182.02C159.522 182.373 160.209 182.793 160.689 183.28C161.169 183.76 161.409 184.347 161.409 185.04C161.409 185.62 161.275 186.147 161.009 186.62C160.749 187.087 160.332 187.463 159.759 187.75C159.192 188.037 158.469 188.18 157.589 188.18ZM172.368 188.28C171.908 188.28 171.491 188.18 171.118 187.98C170.751 187.773 170.448 187.5 170.208 187.16C169.968 186.813 169.794 186.433 169.688 186.02V188H167.488V172.8H169.888V178.04L169.688 179.76C169.788 179.333 169.991 178.97 170.298 178.67C170.611 178.37 170.971 178.147 171.378 178C171.784 177.853 172.188 177.78 172.588 177.78C173.828 177.78 174.764 178.22 175.398 179.1C176.031 179.973 176.348 181.267 176.348 182.98C176.348 184.133 176.171 185.11 175.818 185.91C175.471 186.703 174.998 187.297 174.398 187.69C173.798 188.083 173.121 188.28 172.368 188.28ZM171.788 186.3C172.134 186.3 172.454 186.187 172.748 185.96C173.041 185.733 173.278 185.373 173.458 184.88C173.638 184.38 173.728 183.747 173.728 182.98C173.728 182.267 173.641 181.673 173.468 181.2C173.301 180.727 173.074 180.38 172.788 180.16C172.501 179.933 172.181 179.82 171.828 179.82C171.428 179.82 171.084 179.963 170.798 180.25C170.511 180.537 170.294 180.933 170.148 181.44C170.001 181.94 169.928 182.507 169.928 183.14C169.928 183.767 170.001 184.32 170.148 184.8C170.301 185.273 170.518 185.643 170.798 185.91C171.078 186.17 171.408 186.3 171.788 186.3ZM182.737 188.26C181.663 188.26 180.777 188.033 180.077 187.58C179.377 187.12 178.863 186.507 178.537 185.74C178.217 184.973 178.057 184.107 178.057 183.14C178.057 182.153 178.237 181.257 178.597 180.45C178.963 179.637 179.497 178.993 180.197 178.52C180.897 178.04 181.73 177.8 182.697 177.8C184.137 177.8 185.167 178.217 185.787 179.05C186.407 179.877 186.717 181.113 186.717 182.76C186.717 183.08 186.703 183.44 186.677 183.84H180.677C180.717 184.647 180.94 185.27 181.347 185.71C181.76 186.143 182.363 186.36 183.157 186.36C183.57 186.36 184.013 186.27 184.487 186.09C184.96 185.903 185.31 185.68 185.537 185.42L186.337 187.32C185.397 187.947 184.197 188.26 182.737 188.26ZM184.177 182.28C184.177 181.3 184.053 180.627 183.807 180.26C183.567 179.887 183.217 179.7 182.757 179.7C182.11 179.7 181.607 179.94 181.247 180.42C180.893 180.9 180.697 181.52 180.657 182.28H184.177ZM193.108 188.26C192.035 188.26 191.148 188.033 190.448 187.58C189.748 187.12 189.235 186.507 188.908 185.74C188.588 184.973 188.428 184.107 188.428 183.14C188.428 182.153 188.608 181.257 188.968 180.45C189.335 179.637 189.868 178.993 190.568 178.52C191.268 178.04 192.101 177.8 193.068 177.8C194.508 177.8 195.538 178.217 196.158 179.05C196.778 179.877 197.088 181.113 197.088 182.76C197.088 183.08 197.075 183.44 197.048 183.84H191.048C191.088 184.647 191.311 185.27 191.718 185.71C192.131 186.143 192.735 186.36 193.528 186.36C193.941 186.36 194.385 186.27 194.858 186.09C195.331 185.903 195.681 185.68 195.908 185.42L196.708 187.32C195.768 187.947 194.568 188.26 193.108 188.26ZM194.548 182.28C194.548 181.3 194.425 180.627 194.178 180.26C193.938 179.887 193.588 179.7 193.128 179.7C192.481 179.7 191.978 179.94 191.618 180.42C191.265 180.9 191.068 181.52 191.028 182.28H194.548ZM204.739 177.8C205.732 177.8 206.479 178.117 206.979 178.75C207.486 179.377 207.739 180.267 207.739 181.42V188H205.179V181.64C205.179 181.073 205.059 180.623 204.819 180.29C204.579 179.95 204.226 179.78 203.759 179.78C203.446 179.78 203.152 179.86 202.879 180.02C202.612 180.18 202.399 180.403 202.239 180.69C202.079 180.97 201.999 181.287 201.999 181.64V188H199.439V178.04H201.759L201.809 179.35C202.496 178.317 203.472 177.8 204.739 177.8ZM216.419 188.28C215.826 188.28 215.326 188.147 214.919 187.88C214.513 187.613 214.206 187.253 213.999 186.8C213.799 186.347 213.699 185.84 213.699 185.28C213.699 184.793 213.859 184.31 214.179 183.83C214.506 183.343 215.083 182.93 215.909 182.59C216.736 182.25 217.853 182.08 219.259 182.08V181.62C219.259 181.073 219.126 180.65 218.859 180.35C218.599 180.05 218.139 179.9 217.479 179.9C216.959 179.9 216.449 179.99 215.949 180.17C215.456 180.343 215.093 180.56 214.859 180.82L214.059 178.9C214.513 178.593 215.076 178.333 215.749 178.12C216.423 177.907 217.139 177.8 217.899 177.8C218.853 177.8 219.606 177.947 220.159 178.24C220.719 178.533 221.113 178.947 221.339 179.48C221.566 180.013 221.679 180.673 221.679 181.46V188H219.539L219.359 186.58C219.006 187.153 218.586 187.58 218.099 187.86C217.619 188.14 217.059 188.28 216.419 188.28ZM217.479 186.36C217.786 186.36 218.109 186.237 218.449 185.99C218.789 185.743 219.059 185.433 219.259 185.06V183.64C219.166 183.627 219.006 183.62 218.779 183.62C218.106 183.62 217.503 183.733 216.969 183.96C216.443 184.18 216.179 184.54 216.179 185.04C216.179 185.513 216.283 185.853 216.489 186.06C216.703 186.26 217.033 186.36 217.479 186.36ZM227.701 188.28C226.901 188.28 226.201 188.063 225.601 187.63C225.008 187.197 224.548 186.587 224.221 185.8C223.901 185.007 223.741 184.087 223.741 183.04C223.741 181.373 224.078 180.083 224.751 179.17C225.431 178.257 226.428 177.8 227.741 177.8C228.428 177.8 229.004 177.97 229.471 178.31C229.938 178.65 230.241 179.133 230.381 179.76L230.201 178.3V172.8H232.561V188H230.381V185.96C230.194 186.673 229.871 187.24 229.411 187.66C228.951 188.073 228.381 188.28 227.701 188.28ZM228.281 186.3C228.614 186.3 228.921 186.187 229.201 185.96C229.488 185.733 229.714 185.38 229.881 184.9C230.054 184.413 230.141 183.807 230.141 183.08C230.141 182.027 229.991 181.22 229.691 180.66C229.391 180.1 228.941 179.82 228.341 179.82C227.994 179.82 227.668 179.923 227.361 180.13C227.061 180.337 226.811 180.68 226.611 181.16C226.418 181.64 226.321 182.267 226.321 183.04C226.321 183.753 226.404 184.353 226.571 184.84C226.744 185.327 226.978 185.693 227.271 185.94C227.571 186.18 227.908 186.3 228.281 186.3ZM238.541 188.28C237.741 188.28 237.041 188.063 236.441 187.63C235.847 187.197 235.387 186.587 235.061 185.8C234.741 185.007 234.581 184.087 234.581 183.04C234.581 181.373 234.917 180.083 235.591 179.17C236.271 178.257 237.267 177.8 238.581 177.8C239.267 177.8 239.844 177.97 240.311 178.31C240.777 178.65 241.081 179.133 241.221 179.76L241.041 178.3V172.8H243.401V188H241.221V185.96C241.034 186.673 240.711 187.24 240.251 187.66C239.791 188.073 239.221 188.28 238.541 188.28ZM239.121 186.3C239.454 186.3 239.761 186.187 240.041 185.96C240.327 185.733 240.554 185.38 240.721 184.9C240.894 184.413 240.981 183.807 240.981 183.08C240.981 182.027 240.831 181.22 240.531 180.66C240.231 180.1 239.781 179.82 239.181 179.82C238.834 179.82 238.507 179.923 238.201 180.13C237.901 180.337 237.651 180.68 237.451 181.16C237.257 181.64 237.161 182.267 237.161 183.04C237.161 183.753 237.244 184.353 237.411 184.84C237.584 185.327 237.817 185.693 238.111 185.94C238.411 186.18 238.747 186.3 239.121 186.3ZM250.081 188.26C249.007 188.26 248.121 188.033 247.421 187.58C246.721 187.12 246.207 186.507 245.881 185.74C245.561 184.973 245.401 184.107 245.401 183.14C245.401 182.153 245.581 181.257 245.941 180.45C246.307 179.637 246.841 178.993 247.541 178.52C248.241 178.04 249.074 177.8 250.041 177.8C251.481 177.8 252.511 178.217 253.131 179.05C253.751 179.877 254.061 181.113 254.061 182.76C254.061 183.08 254.047 183.44 254.021 183.84H248.021C248.061 184.647 248.284 185.27 248.691 185.71C249.104 186.143 249.707 186.36 250.501 186.36C250.914 186.36 251.357 186.27 251.831 186.09C252.304 185.903 252.654 185.68 252.881 185.42L253.681 187.32C252.741 187.947 251.541 188.26 250.081 188.26ZM251.521 182.28C251.521 181.3 251.397 180.627 251.151 180.26C250.911 179.887 250.561 179.7 250.101 179.7C249.454 179.7 248.951 179.94 248.591 180.42C248.237 180.9 248.041 181.52 248.001 182.28H251.521ZM259.752 188.28C258.952 188.28 258.252 188.063 257.652 187.63C257.058 187.197 256.598 186.587 256.272 185.8C255.952 185.007 255.792 184.087 255.792 183.04C255.792 181.373 256.128 180.083 256.802 179.17C257.482 178.257 258.478 177.8 259.792 177.8C260.478 177.8 261.055 177.97 261.522 178.31C261.988 178.65 262.292 179.133 262.432 179.76L262.252 178.3V172.8H264.612V188H262.432V185.96C262.245 186.673 261.922 187.24 261.462 187.66C261.002 188.073 260.432 188.28 259.752 188.28ZM260.332 186.3C260.665 186.3 260.972 186.187 261.252 185.96C261.538 185.733 261.765 185.38 261.932 184.9C262.105 184.413 262.192 183.807 262.192 183.08C262.192 182.027 262.042 181.22 261.742 180.66C261.442 180.1 260.992 179.82 260.392 179.82C260.045 179.82 259.718 179.923 259.412 180.13C259.112 180.337 258.862 180.68 258.662 181.16C258.468 181.64 258.372 182.267 258.372 183.04C258.372 183.753 258.455 184.353 258.622 184.84C258.795 185.327 259.028 185.693 259.322 185.94C259.622 186.18 259.958 186.3 260.332 186.3ZM271.771 172.62H274.511L274.231 182.94H272.031L271.771 172.62ZM271.991 185.02H274.271V188H271.991V185.02Z" fill="#4A4A4A"/>
</svg>
