<svg width="103" height="104" viewBox="0 0 103 104" fill="none" xmlns="http://www.w3.org/2000/svg">
<ellipse opacity="0.1" cx="51.1846" cy="100.114" rx="51.1846" ry="3.07107" fill="#2B2A7F"/>
<path fill-rule="evenodd" clip-rule="evenodd" d="M20.2141 17.626C19.5278 16.3039 17.8998 15.7885 16.5778 16.4747C15.2558 17.1609 14.7403 18.7889 15.4266 20.111L17.9826 25.0353C18.6688 26.3574 20.2968 26.8728 21.6188 26.1866C22.9409 25.5004 23.4563 23.8724 22.7701 22.5503L20.2141 17.626ZM17.521 18.2919C17.8395 18.1266 18.2316 18.2507 18.3969 18.5692L20.9529 23.4936C21.1182 23.812 20.9941 24.2041 20.6756 24.3694C20.3572 24.5347 19.9651 24.4105 19.7998 24.0921L17.2437 19.1677C17.0784 18.8493 17.2026 18.4572 17.521 18.2919ZM26.9871 29.3969C23.5949 29.3969 20.845 32.1469 20.845 35.5391V78.64C20.845 82.0322 23.5949 84.7822 26.9871 84.7822H67.9348C71.327 84.7822 74.0769 82.0322 74.0769 78.64V71.9922C69.7932 69.5142 66.9111 64.8826 66.9111 59.5778C66.9111 54.2731 69.7932 49.6415 74.0769 47.1635V35.5391C74.0769 32.1469 71.327 29.3969 67.9348 29.3969H63.7342V30.9498C63.7342 33.7766 61.4426 36.0682 58.6157 36.0682H38.3537C35.5269 36.0682 33.2353 33.7766 33.2353 30.9498V29.3969H26.9871ZM76.1243 46.1872V35.5391C76.1243 31.0161 72.4577 27.3496 67.9348 27.3496H54.479C53.7838 24.6886 51.3636 22.725 48.4847 22.725C45.6059 22.725 43.1857 24.6886 42.4904 27.3496H26.9871C22.4642 27.3496 18.7976 31.0161 18.7976 35.5391V78.64C18.7976 83.163 22.4642 86.8296 26.9871 86.8296H67.9348C72.4577 86.8296 76.1243 83.163 76.1243 78.64V72.9685C77.7139 73.5765 79.4394 73.9095 81.2428 73.9095C89.1579 73.9095 95.5745 67.493 95.5745 59.5778C95.5745 51.6627 89.1579 45.2462 81.2428 45.2462C79.4394 45.2462 77.7139 45.5792 76.1243 46.1872ZM7.4514 25.671C8.1176 24.3388 9.73764 23.7989 11.0699 24.4651L16.0322 26.9466C17.3645 27.6128 17.9044 29.2328 17.2382 30.565C16.572 31.8973 14.9519 32.4372 13.6197 31.771L8.65735 29.2895C7.32512 28.6233 6.7852 27.0032 7.4514 25.671ZM10.1542 26.2962C9.83327 26.1358 9.44305 26.2658 9.28259 26.5867C9.12212 26.9076 9.25217 27.2978 9.57306 27.4583L14.5354 29.9398C14.8563 30.1003 15.2465 29.9702 15.407 29.6493C15.5675 29.3284 15.4374 28.9382 15.1165 28.7777L10.1542 26.2962ZM42.6954 49.9937C42.6954 48.5803 43.8412 47.4345 45.2546 47.4345H62.6574C64.0708 47.4345 65.2166 48.5803 65.2166 49.9937C65.2166 51.4072 64.0708 52.553 62.6574 52.553H45.2546C43.8412 52.553 42.6954 51.4072 42.6954 49.9937ZM45.2546 59.4189C43.8412 59.4189 42.6954 60.5647 42.6954 61.9781C42.6954 63.3915 43.8412 64.5374 45.2546 64.5374H62.6574C64.0708 64.5374 65.2166 63.3915 65.2166 61.9781C65.2166 60.5647 64.0708 59.4189 62.6574 59.4189H45.2546ZM44.7428 61.9781C44.7428 61.6954 44.9719 61.4663 45.2546 61.4663H62.6574C62.9401 61.4663 63.1692 61.6954 63.1692 61.9781C63.1692 62.2608 62.9401 62.49 62.6574 62.49H45.2546C44.9719 62.49 44.7428 62.2608 44.7428 61.9781ZM42.6954 74.5093C42.6954 73.0959 43.8412 71.9501 45.2546 71.9501H62.6574C64.0708 71.9501 65.2166 73.0959 65.2166 74.5093C65.2166 75.9228 64.0708 77.0686 62.6574 77.0686H45.2546C43.8412 77.0686 42.6954 75.9228 42.6954 74.5093ZM45.2546 73.9975C44.9719 73.9975 44.7428 74.2267 44.7428 74.5093C44.7428 74.792 44.9719 75.0212 45.2546 75.0212H62.6574C62.9401 75.0212 63.1692 74.792 63.1692 74.5093C63.1692 74.2267 62.9401 73.9975 62.6574 73.9975H45.2546ZM31.2578 49.076C31.2578 47.3799 32.6328 46.0049 34.3289 46.0049H35.9527C37.6488 46.0049 39.0238 47.3799 39.0238 49.076V50.6998C39.0238 52.3959 37.6488 53.7709 35.9527 53.7709H34.3289C32.6328 53.7709 31.2578 52.3959 31.2578 50.6998V49.076ZM34.3289 57.9893C32.6328 57.9893 31.2578 59.3643 31.2578 61.0604V62.6842C31.2578 64.3803 32.6328 65.7553 34.3289 65.7553H35.9527C37.6488 65.7553 39.0238 64.3803 39.0238 62.6842V61.0604C39.0238 59.3643 37.6488 57.9893 35.9527 57.9893H34.3289ZM33.3052 61.0604C33.3052 60.495 33.7636 60.0367 34.3289 60.0367H35.9527C36.5181 60.0367 36.9764 60.495 36.9764 61.0604V62.6842C36.9764 63.2496 36.5181 63.7079 35.9527 63.7079H34.3289C33.7636 63.7079 33.3052 63.2496 33.3052 62.6842V61.0604ZM31.2578 73.5916C31.2578 71.8955 32.6328 70.5206 34.3289 70.5206H35.9527C37.6488 70.5206 39.0238 71.8955 39.0238 73.5916V75.2154C39.0238 76.9115 37.6488 78.2865 35.9527 78.2865H34.3289C32.6328 78.2865 31.2578 76.9115 31.2578 75.2154V73.5916ZM34.3289 72.5679C33.7636 72.5679 33.3052 73.0263 33.3052 73.5916V75.2154C33.3052 75.7808 33.7636 76.2391 34.3289 76.2391H35.9527C36.5181 76.2391 36.9764 75.7808 36.9764 75.2154V73.5916C36.9764 73.0263 36.5181 72.5679 35.9527 72.5679H34.3289ZM68.9585 59.5778C68.9585 52.7934 74.4583 47.2935 81.2428 47.2935C88.0272 47.2935 93.5271 52.7934 93.5271 59.5778C93.5271 66.3623 88.0272 71.8621 81.2428 71.8621C74.4583 71.8621 68.9585 66.3623 68.9585 59.5778ZM78.6836 52.9239C78.6836 51.5104 79.8294 50.3646 81.2428 50.3646C82.6562 50.3646 83.802 51.5104 83.802 52.9239V59.066C83.802 60.4794 82.6562 61.6252 81.2428 61.6252C79.8294 61.6252 78.6836 60.4794 78.6836 59.066V52.9239ZM81.2428 52.412C80.9601 52.412 80.7309 52.6412 80.7309 52.9239V59.066C80.7309 59.3487 80.9601 59.5778 81.2428 59.5778C81.5255 59.5778 81.7546 59.3487 81.7546 59.066V52.9239C81.7546 52.6412 81.5255 52.412 81.2428 52.412ZM81.2428 68.7911C79.8294 68.7911 78.6836 67.6453 78.6836 66.2318C78.6836 64.8184 79.8294 63.6726 81.2428 63.6726C82.6562 63.6726 83.802 64.8184 83.802 66.2318C83.802 67.6453 82.6562 68.7911 81.2428 68.7911ZM80.7309 66.2318C80.7309 66.5145 80.9601 66.7437 81.2428 66.7437C81.5255 66.7437 81.7546 66.5145 81.7546 66.2318C81.7546 65.9492 81.5255 65.72 81.2428 65.72C80.9601 65.72 80.7309 65.9492 80.7309 66.2318Z" fill="#2B2A7F"/>
</svg>
