<svg width="208" height="131" viewBox="0 0 208 131" fill="none" xmlns="http://www.w3.org/2000/svg">
<rect x="28" width="152" height="123" fill="white"/>
<path fill-rule="evenodd" clip-rule="evenodd" d="M66.3039 82.4101H121.632C121.945 82.4101 122.25 82.3759 122.544 82.311C122.838 82.3759 123.143 82.4101 123.456 82.4101H155.072C157.422 82.4101 159.328 80.4827 159.328 78.1051C159.328 75.7275 157.422 73.8001 155.072 73.8001H151.424C149.073 73.8001 147.168 71.8727 147.168 69.4951C147.168 67.1175 149.073 65.1901 151.424 65.1901H162.976C165.326 65.1901 167.232 63.2627 167.232 60.8851C167.232 58.5075 165.326 56.5801 162.976 56.5801H149.6C151.95 56.5801 153.856 54.6527 153.856 52.2751C153.856 49.8975 151.95 47.9701 149.6 47.9701H110.688C113.038 47.9701 114.944 46.0427 114.944 43.6651C114.944 41.2875 113.038 39.3601 110.688 39.3601H76.0319C73.6814 39.3601 71.7759 41.2875 71.7759 43.6651C71.7759 46.0427 73.6814 47.9701 76.0319 47.9701H51.7119C49.3614 47.9701 47.4559 49.8975 47.4559 52.2751C47.4559 54.6527 49.3614 56.5801 51.7119 56.5801H66.9119C69.2625 56.5801 71.1679 58.5075 71.1679 60.8851C71.1679 63.2627 69.2625 65.1901 66.9119 65.1901H42.5919C40.2414 65.1901 38.3359 67.1175 38.3359 69.4951C38.3359 71.8727 40.2414 73.8001 42.5919 73.8001H66.3039C63.9534 73.8001 62.0479 75.7275 62.0479 78.1051C62.0479 80.4827 63.9534 82.4101 66.3039 82.4101ZM165.408 82.4101C167.758 82.4101 169.664 80.4827 169.664 78.1051C169.664 75.7275 167.758 73.8001 165.408 73.8001C163.057 73.8001 161.152 75.7275 161.152 78.1051C161.152 80.4827 163.057 82.4101 165.408 82.4101Z" fill="#F3F7FF"/>
<path fill-rule="evenodd" clip-rule="evenodd" d="M96.7763 69.0686C96.7288 69.4088 96.7043 69.7565 96.7043 70.11C96.7043 74.1859 99.9708 77.49 104 77.49C108.03 77.49 111.296 74.1859 111.296 70.11C111.296 69.7565 111.272 69.4088 111.224 69.0686H128.928V85.485C128.928 86.504 128.112 87.33 127.104 87.33H80.8963C79.8889 87.33 79.0723 86.504 79.0723 85.485V69.0686H96.7763Z" fill="white"/>
<path fill-rule="evenodd" clip-rule="evenodd" d="M111.904 68.8799C111.904 73.2955 108.366 76.8749 104 76.8749C99.635 76.8749 96.0963 73.2955 96.0963 68.8799C96.0963 68.7369 96.1 68.5947 96.1073 68.4535H79.0723L84.885 51.0688C85.1356 50.3194 85.8307 49.8149 86.6129 49.8149H121.388C122.17 49.8149 122.865 50.3194 123.116 51.0688L128.928 68.4535H111.893C111.901 68.5947 111.904 68.7369 111.904 68.8799Z" fill="white"/>
<path fill-rule="evenodd" clip-rule="evenodd" d="M110.748 69.4671C110.748 72.8791 107.727 76.2601 104.001 76.2601C100.274 76.2601 97.2536 72.8791 97.2536 69.4671C97.2536 69.3566 97.2568 68.6317 97.263 68.5226H84.5449L89.507 56.319C89.7209 55.7399 90.3143 55.3501 90.982 55.3501H117.02C117.688 55.3501 118.281 55.7399 118.495 56.319L123.457 68.5226H110.739C110.745 68.6317 110.748 69.3566 110.748 69.4671Z" fill="#E8F0FE"/>
<path fill-rule="evenodd" clip-rule="evenodd" d="M79.832 68.58V84.87C79.832 85.4644 80.3084 85.9462 80.896 85.9462H127.104C127.692 85.9462 128.168 85.4644 128.168 84.87V68.58L122.395 51.3152C122.249 50.878 121.844 50.5837 121.387 50.5837H86.6126C86.1564 50.5837 85.7509 50.878 85.6047 51.3152L79.832 68.58Z" stroke="#1F64E7" stroke-width="2.5"/>
<path d="M87.5835 68.2649C89.977 68.2649 92.5599 68.2649 95.3324 68.2649C96.4732 68.2649 96.4732 69.0758 96.4732 69.4949C96.4732 73.5708 99.8149 76.8749 103.937 76.8749C108.059 76.8749 111.401 73.5708 111.401 69.4949C111.401 69.0758 111.401 68.2649 112.542 68.2649H127.712M83.0684 68.2649H84.5435H83.0684Z" stroke="#1F64E7" stroke-width="2.5" stroke-linecap="round" stroke-linejoin="round"/>
<path d="M119.261 35.8561L112.512 43.5148M103.453 33.21V43.5148V33.21ZM87.584 35.8561L94.3325 43.5148L87.584 35.8561Z" stroke="#75A4FE" stroke-width="2.5" stroke-linecap="round" stroke-linejoin="round"/>
<path d="M8.68234 111.14L3.58234 103.3H6.26234L9.80234 109.1L13.3423 103.3H16.0023L10.9223 111.18V118H8.68234V111.14ZM19.9734 118.2C19.0268 118.2 18.1868 117.987 17.4534 117.56C16.7201 117.133 16.1534 116.553 15.7534 115.82C15.3534 115.087 15.1534 114.273 15.1534 113.38C15.1534 112.5 15.3468 111.693 15.7334 110.96C16.1334 110.227 16.7001 109.647 17.4334 109.22C18.1668 108.793 19.0134 108.58 19.9734 108.58C20.9334 108.58 21.7734 108.793 22.4934 109.22C23.2268 109.647 23.7868 110.227 24.1734 110.96C24.5734 111.693 24.7734 112.5 24.7734 113.38C24.7734 114.273 24.5734 115.087 24.1734 115.82C23.7734 116.553 23.2068 117.133 22.4734 117.56C21.7534 117.987 20.9201 118.2 19.9734 118.2ZM20.0334 116.44C20.8068 116.44 21.4134 116.153 21.8534 115.58C22.3068 115.007 22.5334 114.287 22.5334 113.42C22.5334 112.553 22.2934 111.827 21.8134 111.24C21.3334 110.64 20.7001 110.34 19.9134 110.34C19.1534 110.34 18.5401 110.633 18.0734 111.22C17.6201 111.807 17.3934 112.54 17.3934 113.42C17.3934 114.273 17.6401 114.993 18.1334 115.58C18.6268 116.153 19.2601 116.44 20.0334 116.44ZM30.2602 118.2C28.9935 118.2 28.1202 117.827 27.6402 117.08C27.1735 116.333 26.9402 115.293 26.9402 113.96V108.82H29.1002V113.42C29.1002 114.18 29.1402 114.773 29.2202 115.2C29.3135 115.613 29.4868 115.92 29.7402 116.12C30.0068 116.32 30.4002 116.42 30.9202 116.42C31.2935 116.42 31.6535 116.313 32.0002 116.1C32.3468 115.887 32.6268 115.6 32.8402 115.24C33.0668 114.867 33.1802 114.46 33.1802 114.02V108.82H35.3202V118H33.5602L33.3202 116.66C32.9868 117.18 32.5668 117.567 32.0602 117.82C31.5668 118.073 30.9668 118.2 30.2602 118.2ZM38.1334 108.82H40.2934V110.62C40.5068 110.007 40.8534 109.513 41.3334 109.14C41.8134 108.767 42.3601 108.58 42.9734 108.58C43.4001 108.58 43.6934 108.62 43.8534 108.7L43.5534 110.88C43.4334 110.8 43.1734 110.76 42.7734 110.76C42.1468 110.76 41.5734 110.96 41.0534 111.36C40.5468 111.76 40.2934 112.4 40.2934 113.28V118H38.1334V108.82ZM50.2233 108.82H52.3833V110.62C52.5966 110.007 52.9433 109.513 53.4233 109.14C53.9033 108.767 54.4499 108.58 55.0633 108.58C55.4899 108.58 55.7833 108.62 55.9433 108.7L55.6433 110.88C55.5233 110.8 55.2633 110.76 54.8633 110.76C54.2366 110.76 53.6633 110.96 53.1433 111.36C52.6366 111.76 52.3833 112.4 52.3833 113.28V118H50.2233V108.82ZM61.8108 118.2C60.7174 118.2 59.8041 117.987 59.0708 117.56C58.3374 117.12 57.7974 116.54 57.4508 115.82C57.1041 115.087 56.9308 114.287 56.9308 113.42C56.9308 112.447 57.1308 111.593 57.5308 110.86C57.9441 110.127 58.5108 109.567 59.2308 109.18C59.9508 108.78 60.7641 108.58 61.6708 108.58C63.0841 108.58 64.1308 108.973 64.8108 109.76C65.5041 110.533 65.8508 111.627 65.8508 113.04C65.8508 113.4 65.8308 113.773 65.7908 114.16H59.1908C59.3374 114.973 59.6241 115.56 60.0508 115.92C60.4908 116.28 61.0974 116.46 61.8708 116.46C62.5108 116.46 63.0374 116.407 63.4508 116.3C63.8641 116.193 64.2441 116.047 64.5908 115.86L65.2508 117.4C64.9174 117.613 64.4641 117.8 63.8908 117.96C63.3174 118.12 62.6241 118.2 61.8108 118.2ZM63.7508 112.66C63.7641 111.833 63.5841 111.253 63.2108 110.92C62.8374 110.573 62.3041 110.4 61.6108 110.4C60.2108 110.4 59.4041 111.153 59.1908 112.66H63.7508ZM75.4153 116.62C75.0953 117.127 74.6486 117.52 74.0753 117.8C73.502 118.067 72.822 118.2 72.0353 118.2C71.2086 118.2 70.4553 118 69.7753 117.6C69.0953 117.2 68.5553 116.633 68.1553 115.9C67.7686 115.167 67.5753 114.32 67.5753 113.36C67.5753 112.32 67.7753 111.447 68.1753 110.74C68.5753 110.02 69.1086 109.48 69.7753 109.12C70.4553 108.76 71.2086 108.58 72.0353 108.58C73.582 108.58 74.7086 109.22 75.4153 110.5L75.4353 108.82H77.5153V122.86H75.3953L75.4153 116.62ZM72.5353 116.4C73.2953 116.4 73.9353 116.14 74.4553 115.62C74.9753 115.087 75.2353 114.393 75.2353 113.54V113.4C75.2353 112.827 75.1153 112.313 74.8753 111.86C74.6353 111.407 74.3086 111.053 73.8953 110.8C73.482 110.547 73.0286 110.42 72.5353 110.42C71.682 110.42 71.022 110.7 70.5553 111.26C70.0886 111.807 69.8553 112.52 69.8553 113.4C69.8553 114.293 70.082 115.02 70.5353 115.58C71.002 116.127 71.6686 116.4 72.5353 116.4ZM83.5609 118.2C82.2943 118.2 81.4209 117.827 80.9409 117.08C80.4743 116.333 80.2409 115.293 80.2409 113.96V108.82H82.4009V113.42C82.4009 114.18 82.4409 114.773 82.5209 115.2C82.6143 115.613 82.7876 115.92 83.0409 116.12C83.3076 116.32 83.7009 116.42 84.2209 116.42C84.5943 116.42 84.9543 116.313 85.3009 116.1C85.6476 115.887 85.9276 115.6 86.1409 115.24C86.3676 114.867 86.4809 114.46 86.4809 114.02V108.82H88.6209V118H86.8609L86.6209 116.66C86.2876 117.18 85.8676 117.567 85.3609 117.82C84.8676 118.073 84.2676 118.2 83.5609 118.2ZM95.8342 118.2C94.7409 118.2 93.8276 117.987 93.0942 117.56C92.3609 117.12 91.8209 116.54 91.4742 115.82C91.1276 115.087 90.9542 114.287 90.9542 113.42C90.9542 112.447 91.1542 111.593 91.5542 110.86C91.9676 110.127 92.5342 109.567 93.2542 109.18C93.9742 108.78 94.7876 108.58 95.6942 108.58C97.1076 108.58 98.1542 108.973 98.8342 109.76C99.5276 110.533 99.8742 111.627 99.8742 113.04C99.8742 113.4 99.8542 113.773 99.8142 114.16H93.2142C93.3609 114.973 93.6476 115.56 94.0742 115.92C94.5142 116.28 95.1209 116.46 95.8942 116.46C96.5342 116.46 97.0609 116.407 97.4742 116.3C97.8876 116.193 98.2676 116.047 98.6142 115.86L99.2742 117.4C98.9409 117.613 98.4876 117.8 97.9142 117.96C97.3409 118.12 96.6476 118.2 95.8342 118.2ZM97.7742 112.66C97.7876 111.833 97.6076 111.253 97.2342 110.92C96.8609 110.573 96.3276 110.4 95.6342 110.4C94.2342 110.4 93.4276 111.153 93.2142 112.66H97.7742ZM105.299 118.2C104.659 118.2 103.992 118.12 103.299 117.96C102.619 117.787 102.132 117.587 101.839 117.36L102.559 115.66C103.359 116.22 104.272 116.5 105.299 116.5C106.325 116.5 106.839 116.2 106.839 115.6C106.839 115.333 106.732 115.127 106.519 114.98C106.305 114.833 105.925 114.66 105.379 114.46L104.619 114.18C103.819 113.86 103.185 113.48 102.719 113.04C102.252 112.587 102.019 111.993 102.019 111.26C102.019 110.42 102.345 109.767 102.999 109.3C103.665 108.82 104.552 108.58 105.659 108.58C106.205 108.58 106.739 108.64 107.259 108.76C107.792 108.88 108.199 109.033 108.479 109.22L107.699 110.94C107.525 110.767 107.245 110.62 106.859 110.5C106.485 110.367 106.065 110.3 105.599 110.3C104.652 110.3 104.179 110.587 104.179 111.16C104.179 111.48 104.305 111.727 104.559 111.9C104.812 112.06 105.225 112.24 105.799 112.44C105.852 112.453 106.059 112.527 106.419 112.66C107.272 112.993 107.905 113.373 108.319 113.8C108.732 114.227 108.939 114.773 108.939 115.44C108.939 116.347 108.592 117.033 107.899 117.5C107.219 117.967 106.352 118.2 105.299 118.2ZM111.982 110.58H110.362V108.82H111.982V105.08L114.162 104.6V108.82H116.282V110.58H114.162V118H111.982V110.58ZM123.1 108.82H125.34V118H123.1V108.82ZM124.2 107.1C123.786 107.1 123.44 106.96 123.16 106.68C122.88 106.4 122.74 106.053 122.74 105.64C122.74 105.267 122.88 104.947 123.16 104.68C123.44 104.413 123.786 104.28 124.2 104.28C124.6 104.28 124.94 104.413 125.22 104.68C125.5 104.947 125.64 105.267 125.64 105.64C125.64 106.053 125.5 106.4 125.22 106.68C124.953 106.96 124.613 107.1 124.2 107.1ZM131.49 118.2C130.85 118.2 130.183 118.12 129.49 117.96C128.81 117.787 128.323 117.587 128.03 117.36L128.75 115.66C129.55 116.22 130.463 116.5 131.49 116.5C132.517 116.5 133.03 116.2 133.03 115.6C133.03 115.333 132.923 115.127 132.71 114.98C132.497 114.833 132.117 114.66 131.57 114.46L130.81 114.18C130.01 113.86 129.377 113.48 128.91 113.04C128.443 112.587 128.21 111.993 128.21 111.26C128.21 110.42 128.537 109.767 129.19 109.3C129.857 108.82 130.743 108.58 131.85 108.58C132.397 108.58 132.93 108.64 133.45 108.76C133.983 108.88 134.39 109.033 134.67 109.22L133.89 110.94C133.717 110.767 133.437 110.62 133.05 110.5C132.677 110.367 132.257 110.3 131.79 110.3C130.843 110.3 130.37 110.587 130.37 111.16C130.37 111.48 130.497 111.727 130.75 111.9C131.003 112.06 131.417 112.24 131.99 112.44C132.043 112.453 132.25 112.527 132.61 112.66C133.463 112.993 134.097 113.373 134.51 113.8C134.923 114.227 135.13 114.773 135.13 115.44C135.13 116.347 134.783 117.033 134.09 117.5C133.41 117.967 132.543 118.2 131.49 118.2ZM146.615 118.2C145.522 118.2 144.609 117.987 143.875 117.56C143.142 117.12 142.602 116.54 142.255 115.82C141.909 115.087 141.735 114.287 141.735 113.42C141.735 112.447 141.935 111.593 142.335 110.86C142.749 110.127 143.315 109.567 144.035 109.18C144.755 108.78 145.569 108.58 146.475 108.58C147.889 108.58 148.935 108.973 149.615 109.76C150.309 110.533 150.655 111.627 150.655 113.04C150.655 113.4 150.635 113.773 150.595 114.16H143.995C144.142 114.973 144.429 115.56 144.855 115.92C145.295 116.28 145.902 116.46 146.675 116.46C147.315 116.46 147.842 116.407 148.255 116.3C148.669 116.193 149.049 116.047 149.395 115.86L150.055 117.4C149.722 117.613 149.269 117.8 148.695 117.96C148.122 118.12 147.429 118.2 146.615 118.2ZM148.555 112.66C148.569 111.833 148.389 111.253 148.015 110.92C147.642 110.573 147.109 110.4 146.415 110.4C145.015 110.4 144.209 111.153 143.995 112.66H148.555ZM152.92 108.82H155.08V110.48C155.373 109.853 155.8 109.38 156.36 109.06C156.933 108.74 157.587 108.58 158.32 108.58C159.96 108.593 160.967 109.16 161.34 110.28C161.633 109.76 162.073 109.347 162.66 109.04C163.247 108.733 163.867 108.58 164.52 108.58C165.48 108.58 166.207 108.767 166.7 109.14C167.193 109.5 167.52 110.02 167.68 110.7C167.853 111.367 167.94 112.267 167.94 113.4V118H165.76V113.38C165.76 112.3 165.647 111.527 165.42 111.06C165.207 110.593 164.787 110.36 164.16 110.36C163.32 110.36 162.68 110.647 162.24 111.22C161.813 111.78 161.6 112.52 161.6 113.44V118H159.44V113.06C159.44 112.353 159.413 111.827 159.36 111.48C159.307 111.133 159.16 110.86 158.92 110.66C158.68 110.46 158.293 110.36 157.76 110.36C157.293 110.36 156.853 110.5 156.44 110.78C156.04 111.06 155.713 111.44 155.46 111.92C155.22 112.387 155.1 112.893 155.1 113.44V118H152.92V108.82ZM170.733 108.82H172.813V110.52C173.547 109.227 174.693 108.58 176.253 108.58C177.547 108.58 178.593 108.993 179.393 109.82C180.193 110.633 180.593 111.813 180.593 113.36C180.593 114.32 180.393 115.167 179.993 115.9C179.607 116.633 179.073 117.2 178.393 117.6C177.727 118 176.98 118.2 176.153 118.2C175.38 118.2 174.707 118.067 174.133 117.8C173.573 117.52 173.133 117.127 172.813 116.62L172.833 122.86H170.733V108.82ZM175.653 116.38C176.52 116.38 177.187 116.107 177.653 115.56C178.12 115 178.353 114.287 178.353 113.42C178.353 112.513 178.12 111.793 177.653 111.26C177.2 110.713 176.533 110.44 175.653 110.44C175.173 110.44 174.72 110.56 174.293 110.8C173.88 111.027 173.547 111.36 173.293 111.8C173.053 112.227 172.933 112.727 172.933 113.3V113.44C172.933 114.013 173.053 114.527 173.293 114.98C173.547 115.42 173.88 115.767 174.293 116.02C174.707 116.26 175.16 116.38 175.653 116.38ZM183.7 110.58H182.08V108.82H183.7V105.08L185.88 104.6V108.82H188V110.58H185.88V118H183.7V110.58ZM192.396 118.28L188.596 108.82H191.036L192.996 114.66L193.436 116.08L193.876 114.66L195.936 108.82H198.296L192.656 123.04H190.416L192.396 118.28ZM199.937 102.82H202.497L202.117 112.78H200.317L199.937 102.82ZM201.177 118.22C200.777 118.22 200.437 118.087 200.157 117.82C199.877 117.54 199.737 117.193 199.737 116.78C199.737 116.38 199.871 116.04 200.137 115.76C200.417 115.48 200.764 115.34 201.177 115.34C201.591 115.34 201.931 115.48 202.197 115.76C202.477 116.04 202.617 116.38 202.617 116.78C202.617 117.193 202.477 117.54 202.197 117.82C201.931 118.087 201.591 118.22 201.177 118.22Z" fill="#4A4A4A"/>
</svg>
