<svg width="574" height="506" viewBox="0 0 574 506" fill="none" xmlns="http://www.w3.org/2000/svg">
<path d="M153.786 101.847C140.986 109.431 127.818 116.247 114.922 123.863C55.5457 158.615 6.68167 205.207 0.681668 276.583C-3.70233 328.839 12.7617 389.639 58.7297 419.879C70.0783 427.313 82.7427 432.51 96.0417 435.191C114.794 439.015 134.65 437.511 153.786 436.407V101.847Z" fill="#224199"/>
<path d="M429.418 27.5271H245.082C233.212 34.9309 222.083 43.461 211.85 52.9991H465.194C454.026 43.4909 442.056 34.9684 429.418 27.5271Z" fill="#224199"/>
<path d="M420.794 22.7271C407.441 15.5922 393.36 9.91163 378.794 5.78313C334.714 -6.55287 291.05 1.65512 253.258 22.7271H420.794Z" fill="#224199"/>
<path d="M528.858 127.559C512.864 101.675 493.283 78.188 470.698 57.7991H299.85V458.839C312.608 463.109 325.668 466.414 338.922 468.727C426.026 482.679 523.482 451.655 557.274 363.863C587.562 285.191 572.506 197.607 528.858 127.559Z" fill="#224199"/>
<path d="M289.37 57.7991H206.826C203.423 61.1591 200.106 64.6258 196.874 68.1991C187.248 78.6606 176.284 87.8062 164.266 95.3991V435.895C194.129 434.758 224.007 437.719 253.066 444.695C265.37 447.639 277.37 451.575 289.37 455.479V57.7991Z" fill="#224199"/>
<g opacity="0.8">
<path d="M153.786 101.847C140.986 109.431 127.818 116.247 114.922 123.863C55.5457 158.615 6.68167 205.207 0.681668 276.583C-3.70233 328.839 12.7617 389.639 58.7297 419.879C70.0783 427.313 82.7427 432.51 96.0417 435.191C114.794 439.015 134.65 437.511 153.786 436.407V101.847Z" fill="white"/>
<path d="M429.418 27.5271H245.082C233.212 34.9309 222.083 43.461 211.85 52.9991H465.194C454.026 43.4909 442.056 34.9684 429.418 27.5271Z" fill="white"/>
<path d="M420.794 22.7271C407.441 15.5922 393.36 9.91163 378.794 5.78313C334.714 -6.55287 291.05 1.65512 253.258 22.7271H420.794Z" fill="white"/>
<path d="M528.858 127.559C512.864 101.675 493.283 78.188 470.698 57.7991H299.85V458.839C312.608 463.109 325.668 466.414 338.922 468.727C426.026 482.679 523.482 451.655 557.274 363.863C587.562 285.191 572.506 197.607 528.858 127.559Z" fill="white"/>
<path d="M289.37 57.7991H206.826C203.423 61.1591 200.106 64.6258 196.874 68.1991C187.248 78.6606 176.284 87.8062 164.266 95.3991V435.895C194.129 434.758 224.007 437.719 253.066 444.695C265.37 447.639 277.37 451.575 289.37 455.479V57.7991Z" fill="white"/>
</g>
<path d="M283.034 505.975C412.922 505.975 518.218 498.941 518.218 490.263C518.218 481.586 412.922 474.551 283.034 474.551C153.145 474.551 47.8496 481.586 47.8496 490.263C47.8496 498.941 153.145 505.975 283.034 505.975Z" fill="#224199"/>
<path opacity="0.5" d="M283.034 505.975C412.922 505.975 518.218 498.941 518.218 490.263C518.218 481.586 412.922 474.551 283.034 474.551C153.145 474.551 47.8496 481.586 47.8496 490.263C47.8496 498.941 153.145 505.975 283.034 505.975Z" fill="white"/>
<path d="M228.761 71.4791H206.249V76.3911V105.239V110.151H253.993V76.3911H230.361L228.761 71.4791Z" fill="#224199"/>
<path d="M228.761 145.079H206.249V149.991V178.839V183.751H253.993V149.991H230.361L228.761 145.079Z" fill="#224199"/>
<path d="M228.761 218.679H206.249V223.591V252.439V257.351H253.993V223.591H230.361L228.761 218.679Z" fill="#224199"/>
<path d="M228.761 292.279H206.249V297.191V326.039V330.951H253.993V297.191H230.361L228.761 292.279Z" fill="#224199"/>
<path d="M228.761 365.879H206.249V370.791V399.639V404.551H253.993V370.791H230.361L228.761 365.879Z" fill="#224199"/>
<path d="M373.017 71.4791H350.521V76.3911V105.239V110.151H398.249V76.3911H374.617L373.017 71.4791Z" fill="#224199"/>
<path d="M466.617 76.3911L465.017 71.4791H442.521V76.3911V105.239V110.151H490.249V76.3911H466.617Z" fill="#224199"/>
<path d="M373.017 145.079H350.521V149.991V178.839V183.751H398.249V149.991H374.617L373.017 145.079Z" fill="#224199"/>
<path d="M465.017 218.679H442.521V223.591V252.439V257.351H490.249V223.591H466.617L465.017 218.679Z" fill="#224199"/>
<path d="M465.017 145.079H442.521V149.991V178.839V183.751H490.249V149.991H466.617L465.017 145.079Z" fill="#224199"/>
<path d="M373.017 218.679H350.521V223.591V252.439V257.351H398.249V223.591H374.617L373.017 218.679Z" fill="#224199"/>
<path d="M373.017 292.279H350.521V297.191V326.039V330.951H398.249V297.191H374.617L373.017 292.279Z" fill="#224199"/>
<path d="M465.017 292.279H442.521V297.191V326.039V330.951H490.249V297.191H466.617L465.017 292.279Z" fill="#224199"/>
<path d="M373.017 365.879H350.521V370.791V399.639V404.551H398.249V370.791H374.617L373.017 365.879Z" fill="#224199"/>
<path d="M465.017 365.879H442.521V370.791V399.639V404.551H490.249V370.791H466.617L465.017 365.879Z" fill="#224199"/>
<g opacity="0.5">
<path d="M228.761 71.4791H206.249V76.3911V105.239V110.151H253.993V76.3911H230.361L228.761 71.4791Z" fill="white"/>
<path d="M228.761 145.079H206.249V149.991V178.839V183.751H253.993V149.991H230.361L228.761 145.079Z" fill="white"/>
<path d="M228.761 218.679H206.249V223.591V252.439V257.351H253.993V223.591H230.361L228.761 218.679Z" fill="white"/>
<path d="M228.761 292.279H206.249V297.191V326.039V330.951H253.993V297.191H230.361L228.761 292.279Z" fill="white"/>
<path d="M228.761 365.879H206.249V370.791V399.639V404.551H253.993V370.791H230.361L228.761 365.879Z" fill="white"/>
<path d="M373.017 71.4791H350.521V76.3911V105.239V110.151H398.249V76.3911H374.617L373.017 71.4791Z" fill="white"/>
<path d="M466.617 76.3911L465.017 71.4791H442.521V76.3911V105.239V110.151H490.249V76.3911H466.617Z" fill="white"/>
<path d="M373.017 145.079H350.521V149.991V178.839V183.751H398.249V149.991H374.617L373.017 145.079Z" fill="white"/>
<path d="M465.017 218.679H442.521V223.591V252.439V257.351H490.249V223.591H466.617L465.017 218.679Z" fill="white"/>
<path d="M465.017 145.079H442.521V149.991V178.839V183.751H490.249V149.991H466.617L465.017 145.079Z" fill="white"/>
<path d="M373.017 218.679H350.521V223.591V252.439V257.351H398.249V223.591H374.617L373.017 218.679Z" fill="white"/>
<path d="M373.017 292.279H350.521V297.191V326.039V330.951H398.249V297.191H374.617L373.017 292.279Z" fill="white"/>
<path d="M465.017 292.279H442.521V297.191V326.039V330.951H490.249V297.191H466.617L465.017 292.279Z" fill="white"/>
<path d="M373.017 365.879H350.521V370.791V399.639V404.551H398.249V370.791H374.617L373.017 365.879Z" fill="white"/>
<path d="M465.017 365.879H442.521V370.791V399.639V404.551H490.249V370.791H466.617L465.017 365.879Z" fill="white"/>
</g>
<path d="M100.454 179.821C100.454 179.821 99.0142 189.693 103.782 196.445C108.55 203.197 143.334 231.485 146.438 233.117C149.542 234.749 162.886 231.261 158.854 220.477C154.822 209.693 125.526 186.877 119.654 180.701C113.782 174.525 108.31 175.421 108.31 175.421" fill="#224199"/>
<path d="M100.454 179.821C100.454 179.821 99.0142 189.693 103.782 196.445C108.55 203.197 143.334 231.485 146.438 233.117C149.542 234.749 162.886 231.261 158.854 220.477C154.822 209.693 125.526 186.877 119.654 180.701C113.782 174.525 108.31 175.421 108.31 175.421" stroke="#263238" stroke-miterlimit="10"/>
<path d="M153.654 215.821C153.654 215.821 160.326 216.285 172.71 215.821C185.094 215.357 216.07 217.245 220.838 217.245H225.638L225.174 228.205C225.174 228.205 201.814 230.109 185.622 232.493C169.43 234.877 156.086 237.741 142.742 231.069" fill="#224199"/>
<path d="M153.654 215.821C153.654 215.821 160.326 216.285 172.71 215.821C185.094 215.357 216.07 217.245 220.838 217.245H225.638L225.174 228.205C225.174 228.205 201.814 230.109 185.622 232.493C169.43 234.877 156.086 237.741 142.742 231.069" stroke="#263238" stroke-linecap="round" stroke-linejoin="round"/>
<path d="M225.59 217.245L226.422 215.309C227.739 212.234 229.974 209.641 232.822 207.885C235.331 207.151 237.727 206.075 239.942 204.685L240.342 204.445C240.342 204.445 243.318 205.309 241.574 207.645C241.135 208.325 240.526 208.877 239.808 209.248C239.089 209.619 238.286 209.794 237.478 209.757L235.094 213.565L251.494 214.893C251.494 214.893 253.862 215.837 251.958 217.261C250.054 218.685 240.758 218.333 240.758 218.333L252.582 220.413C252.582 220.413 253.926 221.757 253.35 222.893C252.774 224.029 240.374 222.509 240.374 222.509L250.87 225.373C251.297 225.698 251.604 226.156 251.74 226.676C251.876 227.195 251.835 227.745 251.622 228.237C251.254 229.197 248.966 228.813 248.006 228.429C247.046 228.045 240.182 226.909 240.182 226.909L247.814 231.101C247.738 231.555 247.553 231.983 247.274 232.348C246.995 232.714 246.631 233.005 246.214 233.197C245.089 233.511 243.899 233.511 242.774 233.197L232.854 229.197C232.854 229.197 232.326 230.525 224.966 228.333L225.59 217.245Z" fill="white" stroke="#263238" stroke-linecap="round" stroke-linejoin="round"/>
<path d="M235.126 213.437C235.126 213.437 236.07 220.477 232.438 221.821Z" fill="white"/>
<path d="M235.126 213.437C235.126 213.437 236.07 220.477 232.438 221.821" stroke="#263238" stroke-linecap="round" stroke-linejoin="round"/>
<path d="M454.902 184.141C454.902 184.141 454.294 194.093 448.246 199.741C442.198 205.389 402.39 225.965 399.014 226.941C395.638 227.917 383.286 221.773 389.414 212.045C395.542 202.317 428.902 185.965 435.91 181.085C442.918 176.205 448.086 178.221 448.086 178.221" fill="#224199"/>
<path d="M454.902 184.141C454.902 184.141 454.294 194.093 448.246 199.741C442.198 205.389 402.39 225.965 399.014 226.941C395.638 227.917 383.286 221.773 389.414 212.045C395.542 202.317 428.902 185.965 435.91 181.085C442.918 176.205 448.086 178.221 448.086 178.221" stroke="#263238" stroke-miterlimit="10"/>
<path d="M395.414 208.541C395.414 208.541 388.79 207.645 376.758 204.653C364.726 201.661 334.022 197.213 329.35 196.237L324.694 195.261L322.918 206.093C322.918 206.093 345.318 212.717 360.758 218.365C376.198 224.013 388.614 229.565 403.03 225.709" fill="#224199"/>
<path d="M395.414 208.541C395.414 208.541 388.79 207.645 376.758 204.653C364.726 201.661 334.022 197.213 329.35 196.237L324.694 195.261L322.918 206.093C322.918 206.093 345.318 212.717 360.758 218.365C376.198 224.013 388.614 229.565 403.03 225.709" stroke="#263238" stroke-linecap="round" stroke-linejoin="round"/>
<path d="M324.694 195.245L324.278 193.181C323.602 189.896 321.926 186.9 319.478 184.605C317.171 183.352 315.045 181.791 313.158 179.965L312.838 179.645C312.838 179.645 309.734 179.885 310.998 182.461C311.285 183.216 311.766 183.881 312.392 184.39C313.019 184.898 313.769 185.232 314.566 185.357L316.166 189.581L299.846 187.533C299.846 187.533 297.318 187.981 298.902 189.757C300.486 191.533 309.606 193.069 309.606 193.069L297.606 192.717C297.606 192.717 296.006 193.741 296.342 194.989C296.678 196.237 309.142 197.261 309.142 197.261L298.294 197.917C297.809 198.146 297.414 198.529 297.17 199.007C296.927 199.485 296.849 200.031 296.95 200.557C297.142 201.581 299.462 201.661 300.47 201.485C301.478 201.309 308.47 201.597 308.47 201.597L300.134 204.141C300.112 204.593 300.198 205.043 300.384 205.455C300.571 205.867 300.853 206.228 301.206 206.509C302.241 207.046 303.403 207.289 304.566 207.213L315.094 205.309C315.094 205.309 315.35 206.717 322.998 206.077L324.694 195.245Z" fill="white" stroke="#263238" stroke-linecap="round" stroke-linejoin="round"/>
<path d="M316.134 189.581C316.134 189.581 313.782 196.285 317.046 198.333Z" fill="white"/>
<path d="M316.134 189.581C316.134 189.581 313.782 196.285 317.046 198.333" stroke="#263238" stroke-linecap="round" stroke-linejoin="round"/>
<path d="M327.399 258.733H236.519V137.021H300.343L327.399 161.805V258.733Z" fill="white" stroke="#263238" stroke-linecap="round" stroke-linejoin="round"/>
<path d="M300.342 137.021V161.805H327.398L300.342 137.021Z" fill="#263238" stroke="#263238" stroke-linecap="round" stroke-linejoin="round"/>
<path d="M336.744 259.884C346.06 250.025 345.62 234.481 335.762 225.165C325.903 215.849 310.359 216.288 301.042 226.147C291.726 236.005 292.166 251.55 302.024 260.866C311.883 270.182 327.427 269.743 336.744 259.884Z" fill="#263238"/>
<path d="M332.118 240.173H321.718V229.789H316.054V240.173H305.67V245.853H316.054V256.237H321.718V245.853H332.118V240.173Z" fill="white"/>
<path d="M371.91 396.669H197.046L176.886 261.901H371.91V396.669Z" fill="#263238" stroke="#263238" stroke-linecap="round" stroke-linejoin="round"/>
<path d="M280.79 261.901L278.166 254.349C277.462 252.326 276.145 250.572 274.399 249.331C272.653 248.089 270.564 247.422 268.422 247.421H197.67V396.669H372.55L392.694 261.901H280.79Z" fill="#224199" stroke="#263238" stroke-linecap="round" stroke-linejoin="round"/>
<path d="M89.6861 461.629C89.6861 461.629 93.5741 470.349 97.4461 473.261C101.318 476.173 108.646 475.693 109.574 480.541C110.502 485.389 106.662 485.869 103.27 485.869C99.8781 485.869 89.2062 485.869 87.2702 485.389C81.1556 483.244 75.4244 480.132 70.2942 476.173C64.4862 471.373 63.0302 471.805 67.3982 462.589C71.7662 453.373 89.6861 461.629 89.6861 461.629Z" fill="#224199" stroke="#263238" stroke-miterlimit="10"/>
<path d="M109.702 481.469C104.998 482.301 95.7819 483.437 87.6699 481.469C79.5579 479.501 69.9739 472.205 65.1259 468.205C64.1179 471.981 66.0219 472.669 70.2939 476.205C75.4295 480.136 81.1605 483.22 87.2699 485.341C89.2059 485.821 99.8779 485.821 103.27 485.821C106.662 485.821 110.006 485.437 109.702 481.469Z" fill="white" stroke="#263238" stroke-miterlimit="10"/>
<path d="M104.231 303.261C104.231 303.261 97.5746 359.101 92.2466 373.165C86.9186 387.229 78.8866 396.125 76.9506 406.765C75.0146 417.405 67.3506 462.573 67.3506 462.573C67.3506 462.573 72.1506 467.373 75.5906 466.941C79.0306 466.509 89.1586 467.917 92.0706 462.573C94.9826 457.229 95.7026 448.589 96.1826 447.133C96.6626 445.677 116.983 406.365 121.895 390.845C126.807 375.325 142.359 311.229 141.879 303.469" fill="#263238"/>
<path d="M104.231 303.261C104.231 303.261 97.5746 359.101 92.2466 373.165C86.9186 387.229 78.8866 396.125 76.9506 406.765C75.0146 417.405 67.3506 462.573 67.3506 462.573C67.3506 462.573 72.1506 467.373 75.5906 466.941C79.0306 466.509 89.1586 467.917 92.0706 462.573C94.9826 457.229 95.7026 448.589 96.1826 447.133C96.6626 445.677 116.983 406.365 121.895 390.845C126.807 375.325 142.359 311.229 141.879 303.469" stroke="#263238" stroke-miterlimit="10"/>
<path d="M100.678 264.957C100.678 264.957 94.7424 282.413 96.9664 298.013C99.1904 313.613 116.662 321.421 128.966 319.181C141.27 316.941 144.566 308.413 144.566 293.581C144.526 284.403 143.89 275.237 142.662 266.141C128.94 270.528 114.132 270.11 100.678 264.957Z" fill="#263238" stroke="#263238" stroke-miterlimit="10"/>
<path d="M104.774 151.293C104.774 151.293 93.5744 172.093 92.8864 188.797C92.1984 205.501 100.678 264.957 100.678 264.957C100.678 264.957 104.022 271.645 120.006 272.381C135.99 273.117 142.662 267.581 142.662 267.581C142.662 267.581 148.23 229.693 148.23 209.629C148.23 189.565 132.63 159.853 132.63 159.853L104.774 151.293Z" fill="#224199" stroke="#263238" stroke-miterlimit="10"/>
<path d="M96.166 197.549C96.166 197.549 97.142 209.309 111.366 210.781" stroke="#263238" stroke-linecap="round" stroke-linejoin="round"/>
<path d="M100.086 213.229C105.27 216.287 111.396 217.335 117.302 216.173" stroke="#263238" stroke-linecap="round" stroke-linejoin="round"/>
<path d="M105.479 265.661C105.479 265.661 119.687 253.421 127.047 242.141" stroke="#263238" stroke-linecap="round" stroke-linejoin="round"/>
<path d="M125.574 253.901C125.574 253.901 113.318 266.701 108.902 268.125" stroke="#263238" stroke-linecap="round" stroke-linejoin="round"/>
<path d="M112.935 123.741C112.935 123.741 112.567 134.141 111.463 141.197C110.359 148.253 109.975 151.229 109.975 151.229L130.407 159.021C130.407 159.021 128.535 144.909 131.143 138.957C132.612 135.78 133.615 132.406 134.119 128.941C134.119 128.941 127.431 112.589 120.375 111.469C113.319 110.349 112.935 123.741 112.935 123.741Z" fill="white" stroke="#263238" stroke-miterlimit="10"/>
<path d="M140.806 93.7094C140.806 93.7094 144.518 90.3654 139.686 79.3094C134.854 68.2534 111.462 68.9094 100.31 78.9254C89.1585 88.9414 85.4465 106.797 95.1105 118.301C104.774 129.805 116.278 131.309 123.718 126.845C131.158 122.381 131.878 113.853 131.878 110.509C131.878 107.165 129.286 98.9894 132.998 96.7654C135.418 95.3303 138.055 94.2981 140.806 93.7094Z" fill="#263238" stroke="#263238" stroke-miterlimit="10"/>
<path d="M102.534 152.029L135.606 165.405L133.75 154.637L104.39 142.365L102.534 152.029Z" fill="white" stroke="#263238" stroke-miterlimit="10"/>
<path d="M144.966 474.717C144.966 474.717 154.662 480.541 159.99 482.957C165.318 485.373 165.814 484.893 165.814 488.285C165.814 491.677 166.294 492.173 157.558 492.173C148.822 492.173 123.622 492.653 121.206 490.717C118.79 488.781 141.574 473.261 144.966 474.717Z" fill="#224199" stroke="#263238" stroke-miterlimit="10"/>
<path d="M157.558 492.173C165.734 492.173 165.83 491.741 165.814 488.973C140.966 489.725 128.854 488.781 122.966 487.693C121.366 489.181 120.646 490.333 121.206 490.781C123.702 492.653 148.838 492.173 157.558 492.173Z" fill="white" stroke="#263238" stroke-miterlimit="10"/>
<path d="M139.702 91.1014C139.702 91.1014 122.246 99.2774 122.246 102.301C122.246 105.325 129.67 106.381 127.446 110.109C126.389 111.958 125.133 113.685 123.702 115.261C123.702 115.261 126.662 120.461 124.07 121.197C121.478 121.933 120.358 121.933 117.67 118.221C114.982 114.509 112.47 112.653 111.734 118.973C110.998 125.293 113.958 126.397 116.182 126.765C117.909 126.971 119.655 126.971 121.382 126.765C121.382 126.765 125.11 135.677 127.702 136.797C130.294 137.917 142.934 139.405 145.526 136.429C148.118 133.453 146.278 120.077 146.278 120.077C146.278 120.077 149.99 119.341 149.99 115.997C149.99 112.653 144.054 107.821 144.054 107.821C144.054 107.821 145.526 105.597 144.422 100.397C143.585 96.9768 141.97 93.7956 139.702 91.1014Z" fill="white" stroke="#263238" stroke-miterlimit="10"/>
<path d="M140.198 109.469C140.198 110.637 139.734 111.597 139.142 111.597C138.55 111.597 138.086 110.637 138.086 109.469C138.086 108.301 138.55 107.357 139.142 107.357C139.734 107.357 140.198 108.301 140.198 109.469Z" fill="#263238"/>
<path d="M135.494 105.677C135.494 105.677 136.038 102.477 140.854 103.101" stroke="#263238" stroke-linecap="round" stroke-linejoin="round"/>
<path d="M141.782 124.909C139.984 124.753 138.321 123.89 137.158 122.509" stroke="#263238" stroke-linecap="round" stroke-linejoin="round"/>
<path d="M101.302 304.221C101.302 304.221 104.694 337.677 109.046 352.221C113.398 366.765 113.414 373.021 111.958 385.677C110.502 398.333 105.654 409.917 109.046 421.549C112.438 433.181 119.238 482.957 119.238 484.893C119.238 486.829 118.742 489.693 121.174 490.717C123.606 491.741 144.438 477.629 144.934 474.717C145.43 471.805 141.542 463.085 141.542 455.325C141.542 447.565 143.958 402.157 143.958 380.349C143.958 358.541 146.39 316.829 138.63 297.437" fill="#263238"/>
<path d="M101.302 304.221C101.302 304.221 104.694 337.677 109.046 352.221C113.398 366.765 113.414 373.021 111.958 385.677C110.502 398.333 105.654 409.917 109.046 421.549C112.438 433.181 119.238 482.957 119.238 484.893C119.238 486.829 118.742 489.693 121.174 490.717C123.606 491.741 144.438 477.629 144.934 474.717C145.43 471.805 141.542 463.085 141.542 455.325C141.542 447.565 143.958 402.157 143.958 380.349C143.958 358.541 146.39 316.829 138.63 297.437" stroke="#263238" stroke-miterlimit="10"/>
<path d="M104.086 325.341C104.086 325.341 106.374 341.613 109.078 352.221C111.782 362.829 114.55 367.805 111.254 381.021C107.958 394.237 106.838 398.621 108.486 405.277" stroke="white" stroke-linecap="round" stroke-linejoin="round"/>
<path d="M400.598 465.245C400.598 465.245 380.758 471.869 376.038 473.245C371.318 474.621 367.062 475.613 371.318 480.333C375.574 485.053 396.358 485.533 402.486 485.533C408.614 485.533 412.886 488.829 414.294 485.053C415.702 481.277 415.718 470.877 415.718 470.877L400.598 465.245Z" fill="#224199" stroke="#263238" stroke-miterlimit="10"/>
<path d="M414.903 482.797C409.623 482.637 399.655 482.141 387.863 480.621C381.668 480.027 375.584 478.584 369.783 476.333C369.351 477.277 369.783 478.541 371.383 480.365C375.639 485.085 396.423 485.565 402.551 485.565C408.679 485.565 412.951 488.861 414.359 485.085C414.61 484.341 414.792 483.575 414.903 482.797Z" fill="white" stroke="#263238" stroke-miterlimit="10"/>
<path d="M460.582 469.965C460.582 469.965 445.462 481.309 441.222 483.661C436.982 486.013 436.022 489.805 439.798 489.805C443.574 489.805 474.278 490.749 478.534 487.917C482.79 485.085 476.646 471.389 476.646 471.389C476.646 471.389 465.302 469.965 460.582 469.965Z" fill="#224199" stroke="#263238" stroke-miterlimit="10"/>
<path d="M478.534 487.917C479.734 487.117 480.134 485.437 480.006 483.453C466.28 485.869 452.325 486.728 438.406 486.013C436.902 487.949 437.206 489.805 439.862 489.805C443.574 489.805 474.278 490.749 478.534 487.917Z" fill="white" stroke="#263238" stroke-miterlimit="10"/>
<path d="M424.214 250.733C424.214 250.733 403.414 322.989 402.486 339.997C401.558 357.005 400.598 447.309 400.598 451.549V465.245L415.718 470.909C415.718 470.909 422.806 417.453 424.214 404.701C425.622 391.949 426.582 377.773 428.47 371.101C430.358 364.429 434.134 337.501 435.558 331.901C436.982 326.301 440.278 302.621 439.334 275.693C438.39 248.765 427.526 244.109 424.214 250.733Z" fill="#263238" stroke="#263238" stroke-miterlimit="10"/>
<path d="M421.862 245.533C421.862 245.533 422.326 266.781 422.806 287.565C423.286 308.349 421.862 339.997 426.582 362.669C431.302 385.341 449.718 434.557 451.606 442.573C453.494 450.589 460.118 471.869 460.118 471.869C460.118 471.869 470.502 472.813 476.646 471.389C476.646 471.389 470.502 425.485 469.558 407.533C468.614 389.581 457.27 364.077 454.918 357.933C452.566 351.789 459.702 302.685 459.702 302.685C459.702 302.685 471.03 281.885 468.198 268.669C466.585 260.859 462.823 253.655 457.334 247.869C457.334 247.869 428.934 251.741 421.862 245.533Z" fill="#263238" stroke="#263238" stroke-miterlimit="10"/>
<path d="M423.382 275.149C423.382 275.149 422.838 329.741 424.982 345.181C427.126 360.621 429.382 366.701 429.382 366.701" stroke="white" stroke-linecap="round" stroke-linejoin="round"/>
<path d="M456.327 155.741C456.327 155.741 450.663 151.501 438.391 160.541C426.119 169.581 411.943 194.061 412.887 203.517C413.831 212.973 421.863 240.829 421.863 245.549C421.863 250.269 423.271 248.381 428.935 250.269C434.599 252.157 450.663 251.693 454.439 249.805C458.215 247.917 456.327 235.629 457.271 225.245C458.215 214.861 464.359 194.541 463.895 179.901C463.431 165.261 458.215 157.677 456.327 155.741Z" fill="#224199" stroke="#263238" stroke-miterlimit="10"/>
<path d="M433.19 101.949C433.19 101.949 427.526 109.037 427.526 113.757C427.526 118.477 426.47 123.357 423.638 125.677C420.806 127.997 420.902 130.285 423.27 130.765L425.638 131.229C425.638 131.229 426.966 141.533 428.838 145.325C430.71 149.117 437.43 145.869 438.838 145.325C440.246 144.781 438.374 159.021 438.374 160.445C438.374 161.869 452.534 159.965 454.374 159.965C456.214 159.965 455.318 142.957 457.206 137.773C459.094 132.589 465.206 125.965 457.686 114.621C450.166 103.277 437.446 93.9174 433.19 101.949Z" fill="white" stroke="#263238" stroke-miterlimit="10"/>
<path d="M431.126 123.005C431.126 124.173 431.59 125.117 432.182 125.117C432.774 125.117 433.238 124.173 433.238 123.005C433.238 121.837 432.774 120.877 432.182 120.877C431.59 120.877 431.126 121.837 431.126 123.005Z" fill="#263238"/>
<path d="M428.246 134.941C428.246 134.941 429.846 136.781 433.462 134.317" stroke="#263238" stroke-linecap="round" stroke-linejoin="round"/>
<path d="M429.479 117.085C429.479 117.085 432.231 113.709 435.607 118.013" stroke="#263238" stroke-linecap="round" stroke-linejoin="round"/>
<path d="M446.598 154.909C446.598 154.909 434.342 159.309 432.374 162.253C430.406 165.197 428.95 170.093 431.894 170.093C434.838 170.093 447.558 161.533 450.998 160.781C454.438 160.029 450.998 150.493 446.598 154.909Z" fill="white" stroke="#263238" stroke-miterlimit="10"/>
<path d="M433.191 101.949C434.36 108.268 436.942 114.24 440.743 119.421C446.887 127.421 453.031 125.565 451.607 132.221C450.183 138.877 439.799 148.221 444.055 158.685C448.311 169.149 457.751 170.957 459.639 175.213C461.527 179.469 465.783 180.877 461.063 197.885C456.343 214.893 449.255 228.573 455.383 244.637C461.511 260.701 477.591 264.941 489.863 259.277C502.135 253.613 494.583 235.661 497.431 224.797C500.279 213.933 524.823 205.437 516.311 175.197C507.799 144.957 487.975 136.941 482.711 126.541C477.447 116.141 478.471 98.6854 467.607 91.5974C456.743 84.5094 444.455 90.6534 440.215 91.5974C435.975 92.5414 433.591 85.4534 425.095 88.7654C416.599 92.0774 411.527 107.965 426.695 111.293C428.286 107.817 430.486 104.653 433.191 101.949Z" fill="#263238" stroke="#263238" stroke-miterlimit="10"/>
<path d="M448.807 124.573C451.769 127.645 455.316 130.093 459.239 131.773C476.839 139.485 489.015 150.525 489.015 169.261C489.015 187.997 471.415 200.701 470.807 216.701C470.199 232.701 479.079 244.813 488.407 239.853C497.735 234.893 493.383 224.973 490.007 224.973" stroke="white" stroke-linecap="round" stroke-linejoin="round"/>
<path d="M440.502 106.957C440.864 110.26 441.795 113.476 443.254 116.461" stroke="white" stroke-linecap="round" stroke-linejoin="round"/>
<path d="M497.942 159.213C501.497 167.049 503.34 175.553 503.35 184.157C502.79 203.453 479.638 212.285 476.87 223.869C474.39 234.285 481.846 243.709 488.454 239.869" stroke="white" stroke-linecap="round" stroke-linejoin="round"/>
<path d="M491.223 146.653C492.779 148.985 494.19 151.411 495.447 153.917" stroke="white" stroke-linecap="round" stroke-linejoin="round"/>
<path d="M465.302 184.157C467.54 176.756 467.343 168.831 464.742 161.549C460.326 149.965 455.366 144.445 455.366 138.381" stroke="white" stroke-linecap="round" stroke-linejoin="round"/>
<path d="M433.19 101.949C432.36 100.506 431.178 99.297 429.754 98.4351C428.329 97.5732 426.71 97.0868 425.046 97.0214C419.526 97.0214 420.07 104.189 426.134 105.293" stroke="white" stroke-linecap="round" stroke-linejoin="round"/>
<path d="M109.078 171.389C109.078 171.389 102.294 181.085 103.75 190.781C105.206 200.477 127.03 248.957 129.446 252.349C131.862 255.741 147.862 259.149 149.318 245.565C150.774 231.981 131.878 192.237 128.966 182.541C126.054 172.845 119.75 170.909 119.75 170.909" fill="#224199"/>
<path d="M109.078 171.389C109.078 171.389 102.294 181.085 103.75 190.781C105.206 200.477 127.03 248.957 129.446 252.349C131.862 255.741 147.862 259.149 149.318 245.565C150.774 231.981 131.878 192.237 128.966 182.541C126.054 172.845 119.75 170.909 119.75 170.909" stroke="#263238" stroke-miterlimit="10"/>
<path d="M145.718 235.421C145.718 235.421 159.926 237.229 169.878 243.245C179.83 249.261 211.478 260.525 211.478 260.525L209.206 269.917C209.206 269.917 174.374 265.901 159.606 263.181C144.838 260.461 135.254 259.165 129.798 251.325" fill="#224199"/>
<path d="M145.718 235.421C145.718 235.421 159.926 237.229 169.878 243.245C179.83 249.261 211.478 260.525 211.478 260.525L209.206 269.917C209.206 269.917 174.374 265.901 159.606 263.181C144.838 260.461 135.254 259.165 129.798 251.325" stroke="#263238" stroke-miterlimit="10"/>
<path d="M240.262 272.429L227.334 268.381L227.478 267.021C227.478 267.021 238.502 269.149 239.702 269.293C240.902 269.437 241.302 268.845 241.302 268.093C241.223 267.523 240.959 266.995 240.55 266.589L222.47 260.093L232.854 258.141C234.358 256.941 232.694 255.741 232.694 255.741L220.502 256.029L211.51 260.525L209.238 269.917C209.238 269.917 225.926 284.317 226.678 284.781C227.43 285.245 227.878 285.981 229.078 285.229C230.278 284.477 229.83 283.629 229.83 283.629L224.502 278.157L233.686 280.861C234.726 281.165 234.886 281.469 235.638 281.165C236.39 280.861 236.534 278.909 236.534 278.909L225.846 273.949L226.31 272.893C226.31 272.893 238.166 275.741 238.902 275.741C239.638 275.741 240.102 275.741 240.71 274.397C240.9 274.074 240.96 273.69 240.877 273.324C240.793 272.959 240.574 272.639 240.262 272.429Z" fill="white" stroke="#263238" stroke-linecap="round" stroke-linejoin="round"/>
<path d="M459.398 175.581C459.398 175.581 452.838 166.477 443.59 172.381C434.342 178.285 400.806 209.357 400.806 209.357C400.806 209.357 394.022 217.357 404.006 223.213C413.99 229.069 454.95 192.653 459.382 189.613" fill="#224199"/>
<path d="M459.398 175.581C459.398 175.581 452.838 166.477 443.59 172.381C434.342 178.285 400.806 209.357 400.806 209.357C400.806 209.357 394.022 217.357 404.006 223.213C413.99 229.069 454.95 192.653 459.382 189.613" stroke="#263238" stroke-miterlimit="10"/>
<path d="M407.574 209.501C407.574 209.501 402.598 206.381 391.286 204.397C379.974 202.413 341.11 180.765 341.11 180.765L334.71 188.765C334.71 188.765 362.054 208.877 376.31 217.485C390.566 226.093 396.934 228.365 401.51 227.901C406.086 227.437 416.758 217.437 416.758 217.437" fill="#224199"/>
<path d="M407.574 209.501C407.574 209.501 402.598 206.381 391.286 204.397C379.974 202.413 341.11 180.765 341.11 180.765L334.71 188.765C334.71 188.765 362.054 208.877 376.31 217.485C390.566 226.093 396.934 228.365 401.51 227.901C406.086 227.437 416.758 217.437 416.758 217.437" stroke="#263238" stroke-miterlimit="10"/>
<path d="M314.278 163.437L324.614 171.677L325.622 170.829C325.622 170.829 317.91 163.085 317.142 162.189C316.374 161.293 316.598 160.589 317.142 160.189C317.641 159.955 318.2 159.882 318.742 159.981L333.814 171.069L329.75 161.613C329.91 159.741 331.782 160.429 331.782 160.429L338.182 170.445L340.166 180.301L335.206 189.213C335.206 189.213 312.374 181.453 311.606 181.101C310.838 180.749 310.006 180.781 309.926 179.389C309.846 177.997 310.854 177.885 310.854 177.885L318.182 179.309L311.078 173.341C310.262 172.653 309.942 172.701 309.766 171.917C309.59 171.133 311.11 169.965 311.11 169.965L320.934 175.901L321.542 174.957C321.542 174.957 312.758 166.957 312.342 166.301C311.926 165.645 311.686 165.325 312.454 164.109C312.613 163.784 312.892 163.533 313.232 163.408C313.571 163.283 313.946 163.293 314.278 163.437Z" fill="white" stroke="#263238" stroke-linecap="round" stroke-linejoin="round"/>
</svg>
