<svg width="24" height="24" viewBox="0 0 24 24" fill="none" xmlns="http://www.w3.org/2000/svg">
<path d="M22.0101 15.5633L22.0109 15.566L22.0108 15.566C22.1775 16.1909 21.8185 16.8696 21.1849 16.992L15.2478 18.5568C15.3215 19.7232 14.569 20.8124 13.4004 21.1165C12.2322 21.4433 11.0181 20.8703 10.5099 19.8297L9.53045 20.0968L9.5294 20.0971C9.32189 20.1488 9.10621 20.0454 9.05186 19.8294C9.05182 19.8292 9.05178 19.829 9.05174 19.8289L5.05577 5.11528L3.15673 5.59013L3.1446 5.54162L3.15673 5.59013C2.66755 5.71244 2.13076 5.41957 1.98422 4.90648M22.0101 15.5633L2.03229 4.89275M22.0101 15.5633L22.0101 15.5631L21.57 13.942C21.57 13.9418 21.5699 13.9416 21.5699 13.9414C21.5155 13.7254 21.2998 13.622 21.0923 13.6738L21.0918 13.6739L19.448 14.1018L17.6072 7.26782C17.6071 7.26768 17.6071 7.26754 17.6071 7.2674C17.5527 7.05134 17.337 6.94784 17.1295 6.99963L17.1287 6.99985L13.5385 7.96027L12.5553 4.3247C12.5553 4.32454 12.5552 4.32438 12.5552 4.32423C12.5009 4.1082 12.2852 4.00472 12.0776 4.05651L12.0771 4.05666L7.44402 5.27226M22.0101 15.5633L7.44402 5.27226M1.98422 4.90648L2.03229 4.89275M1.98422 4.90648C1.98422 4.90648 1.98422 4.90649 1.98422 4.90649L2.03229 4.89275M1.98422 4.90648C1.83689 4.39078 2.1568 3.87821 2.66743 3.73236L2.6691 3.73189L2.66911 3.73192L6.39933 2.80524M2.03229 4.89275C1.89329 4.40618 2.19443 3.91946 2.68117 3.78044L6.41218 2.85356M6.39933 2.80524C6.39904 2.80532 6.39876 2.8054 6.39847 2.80548L6.41218 2.85356M6.39933 2.80524L6.40013 2.80504L6.41218 2.85356M6.39933 2.80524C6.58706 2.75222 6.80087 2.85936 6.85452 3.07282L6.85441 3.07243L6.80612 3.08537M6.41218 2.85356C6.57431 2.80733 6.75973 2.89996 6.80612 3.08537M6.80612 3.08537L6.85462 3.07323M6.80612 3.08537L7.4086 5.33325L6.85462 3.07323M6.85462 3.07323L7.44402 5.27226M6.85462 3.07323L7.44402 5.27226M5.69542 4.57863L5.69549 4.57861L5.6946 4.57593C5.64275 4.42057 5.48727 4.28683 5.32274 4.28683H5.25323V4.28535L5.24134 4.28827L2.97033 4.84449L2.97032 4.84445L2.96849 4.84497C2.90029 4.86444 2.84743 4.85279 2.80872 4.82734C2.76886 4.80114 2.73974 4.75741 2.72642 4.70655C2.69961 4.60417 2.73895 4.49141 2.85673 4.45447L6.21439 3.60938L9.86277 17.0483C9.86281 17.0485 9.86285 17.0487 9.8629 17.0488C9.91723 17.2648 10.1329 17.3683 10.3404 17.3165L10.3409 17.3164L10.8071 17.1955C10.3552 17.7407 10.1772 18.4624 10.272 19.1303L9.69189 19.2704L5.69542 4.57863ZM11.0947 19.2925L11.0947 19.2924C10.8018 18.3462 11.3422 17.3784 12.2878 17.1308L12.2883 17.1306C13.2797 16.8603 14.2478 17.5142 14.4276 18.4132L14.4276 18.4132L14.4278 18.4141C14.63 19.3354 14.0466 20.1691 13.1885 20.4177C12.287 20.6655 11.3645 20.1695 11.0947 19.2925ZM20.9754 16.2927L15.0636 17.8568C14.8148 17.2186 14.2793 16.7014 13.6323 16.4619C14.256 16.2965 14.9237 16.1196 15.6118 15.9374C17.3835 15.4682 19.2904 14.9631 20.93 14.5249L21.2646 15.7743L21.2647 15.7745C21.3272 16.0038 21.2029 16.23 20.9764 16.2924C20.9761 16.2924 20.9759 16.2925 20.9757 16.2926L20.9754 16.2927ZM18.7254 14.3126L10.5026 16.4885L8.74443 10.0267L16.9672 7.85081L18.7254 14.3126ZM7.6553 6.01763L11.9152 4.88463L12.793 8.14825L8.53295 9.28125L7.6553 6.01763Z" fill="#5D6679" stroke="#5D6679" stroke-width="0.1"/>
</svg>
