<svg width="18" height="22" viewBox="0 0 18 22" fill="none" xmlns="http://www.w3.org/2000/svg">
<mask id="path-1-outside-1_136_19" maskUnits="userSpaceOnUse" x="0" y="0" width="18" height="22" fill="black">
<rect fill="white" width="18" height="22"/>
<path d="M9.56512 20.6454H2.09465C1.8466 20.6454 1.64516 20.4398 1.64516 20.187V2.11327C1.64516 1.86058 1.84677 1.65484 2.09465 1.65484H9.56512C9.74315 1.65484 9.8877 1.50813 9.8877 1.32742C9.8877 1.14672 9.74315 1 9.56512 1H2.09465C1.49106 1 1 1.49955 1 2.11328V20.187C1 20.8007 1.49106 21.3003 2.09465 21.3003H9.56512C9.74315 21.3003 9.8877 21.1535 9.8877 20.9728C9.8877 20.7921 9.74333 20.6454 9.56512 20.6454V20.6454ZM17.1499 10.9186L12.7247 6.42719C12.5987 6.29929 12.3946 6.29929 12.2684 6.42719C12.1422 6.55509 12.1424 6.76247 12.2684 6.89036L16.1433 10.8227H5.61245C5.43442 10.8227 5.28987 10.9694 5.28987 11.1501C5.28987 11.3308 5.43442 11.4775 5.61245 11.4775H16.1433L12.2684 15.4103C12.1424 15.5382 12.1424 15.7454 12.2684 15.8734C12.3314 15.9374 12.4136 15.9694 12.4964 15.9694C12.5792 15.9694 12.6617 15.9374 12.7245 15.8734L17.1497 11.382C17.21 11.3208 17.2442 11.2375 17.2442 11.1505C17.2444 11.0633 17.2105 10.9802 17.1499 10.9186V10.9186Z"/>
</mask>
<path d="M9.56512 20.6454H2.09465C1.8466 20.6454 1.64516 20.4398 1.64516 20.187V2.11327C1.64516 1.86058 1.84677 1.65484 2.09465 1.65484H9.56512C9.74315 1.65484 9.8877 1.50813 9.8877 1.32742C9.8877 1.14672 9.74315 1 9.56512 1H2.09465C1.49106 1 1 1.49955 1 2.11328V20.187C1 20.8007 1.49106 21.3003 2.09465 21.3003H9.56512C9.74315 21.3003 9.8877 21.1535 9.8877 20.9728C9.8877 20.7921 9.74333 20.6454 9.56512 20.6454V20.6454ZM17.1499 10.9186L12.7247 6.42719C12.5987 6.29929 12.3946 6.29929 12.2684 6.42719C12.1422 6.55509 12.1424 6.76247 12.2684 6.89036L16.1433 10.8227H5.61245C5.43442 10.8227 5.28987 10.9694 5.28987 11.1501C5.28987 11.3308 5.43442 11.4775 5.61245 11.4775H16.1433L12.2684 15.4103C12.1424 15.5382 12.1424 15.7454 12.2684 15.8734C12.3314 15.9374 12.4136 15.9694 12.4964 15.9694C12.5792 15.9694 12.6617 15.9374 12.7245 15.8734L17.1497 11.382C17.21 11.3208 17.2442 11.2375 17.2442 11.1505C17.2444 11.0633 17.2105 10.9802 17.1499 10.9186V10.9186Z" fill="#5D6679"/>
<path d="M9.56512 20.6454H9.66512V20.5454H9.56512V20.6454ZM9.56512 20.6454H9.46512V20.7454H9.56512V20.6454ZM17.1499 10.9186H17.2499V10.8776L17.2211 10.8484L17.1499 10.9186ZM12.7247 6.42719L12.6535 6.49737L12.6535 6.49737L12.7247 6.42719ZM12.2684 6.42719L12.3396 6.49742L12.3396 6.49742L12.2684 6.42719ZM12.2684 6.89036L12.1971 6.96055L12.1971 6.96055L12.2684 6.89036ZM16.1433 10.8227V10.9227H16.3822L16.2145 10.7525L16.1433 10.8227ZM16.1433 11.4775L16.2145 11.5477L16.3822 11.3775H16.1433V11.4775ZM12.2684 15.4103L12.1971 15.3401L12.1971 15.3401L12.2684 15.4103ZM12.2684 15.8734L12.1971 15.9436L12.1971 15.9436L12.2684 15.8734ZM12.7245 15.8734L12.6533 15.8032L12.6532 15.8034L12.7245 15.8734ZM17.1497 11.382L17.2209 11.4522L17.2209 11.4522L17.1497 11.382ZM17.2442 11.1505L17.1442 11.1503V11.1505H17.2442ZM17.1499 10.9186H17.0499V10.9596L17.0786 10.9888L17.1499 10.9186ZM9.56512 20.5454H2.09465V20.7454H9.56512V20.5454ZM2.09465 20.5454C1.90369 20.5454 1.74516 20.3865 1.74516 20.187H1.54516C1.54516 20.4932 1.7895 20.7454 2.09465 20.7454V20.5454ZM1.74516 20.187V2.11327H1.54516V20.187H1.74516ZM1.74516 2.11327C1.74516 1.91393 1.90387 1.75484 2.09465 1.75484V1.55484C1.78968 1.55484 1.54516 1.80724 1.54516 2.11327H1.74516ZM2.09465 1.75484H9.56512V1.55484H2.09465V1.75484ZM9.56512 1.75484C9.79978 1.75484 9.9877 1.56194 9.9877 1.32742H9.7877C9.7877 1.45431 9.68652 1.55484 9.56512 1.55484V1.75484ZM9.9877 1.32742C9.9877 1.0929 9.79978 0.9 9.56512 0.9V1.1C9.68652 1.1 9.7877 1.20054 9.7877 1.32742H9.9877ZM9.56512 0.9H2.09465V1.1H9.56512V0.9ZM2.09465 0.9C1.43424 0.9 0.9 1.44593 0.9 2.11328H1.1C1.1 1.55317 1.54788 1.1 2.09465 1.1V0.9ZM0.9 2.11328V20.187H1.1V2.11328H0.9ZM0.9 20.187C0.9 20.8543 1.43424 21.4003 2.09465 21.4003V21.2003C1.54788 21.2003 1.1 20.7471 1.1 20.187H0.9ZM2.09465 21.4003H9.56512V21.2003H2.09465V21.4003ZM9.56512 21.4003C9.79978 21.4003 9.9877 21.2074 9.9877 20.9728H9.7877C9.7877 21.0997 9.68652 21.2003 9.56512 21.2003V21.4003ZM9.9877 20.9728C9.9877 20.7383 9.8 20.5454 9.56512 20.5454V20.7454C9.68667 20.7454 9.7877 20.8459 9.7877 20.9728H9.9877ZM9.66512 20.6454V20.6454H9.46512V20.6454H9.66512ZM17.2211 10.8484L12.7959 6.357L12.6535 6.49737L17.0786 10.9888L17.2211 10.8484ZM12.7959 6.357C12.6307 6.18932 12.3625 6.18939 12.1972 6.35696L12.3396 6.49742C12.4266 6.40918 12.5666 6.40925 12.6535 6.49737L12.7959 6.357ZM12.1972 6.35695C12.0325 6.52386 12.0328 6.79378 12.1971 6.96055L12.3396 6.82018C12.2519 6.73115 12.2518 6.58632 12.3396 6.49742L12.1972 6.35695ZM12.1971 6.96055L16.0721 10.8929L16.2145 10.7525L12.3396 6.82017L12.1971 6.96055ZM16.1433 10.7227H5.61245V10.9227H16.1433V10.7227ZM5.61245 10.7227C5.37779 10.7227 5.18987 10.9156 5.18987 11.1501H5.38987C5.38987 11.0232 5.49105 10.9227 5.61245 10.9227V10.7227ZM5.18987 11.1501C5.18987 11.3846 5.37779 11.5775 5.61245 11.5775V11.3775C5.49105 11.3775 5.38987 11.277 5.38987 11.1501H5.18987ZM5.61245 11.5775H16.1433V11.3775H5.61245V11.5775ZM16.072 11.4074L12.1971 15.3401L12.3396 15.4804L16.2145 11.5477L16.072 11.4074ZM12.1971 15.3401C12.0327 15.5069 12.0328 15.7766 12.1971 15.9436L12.3397 15.8033C12.2519 15.7141 12.252 15.5694 12.3396 15.4804L12.1971 15.3401ZM12.1971 15.9436C12.2795 16.0272 12.3877 16.0694 12.4964 16.0694V15.8694C12.4396 15.8694 12.3833 15.8476 12.3396 15.8032L12.1971 15.9436ZM12.4964 16.0694C12.6051 16.0694 12.7136 16.0273 12.7958 15.9435L12.6532 15.8034C12.6098 15.8475 12.5534 15.8694 12.4964 15.8694V16.0694ZM12.7957 15.9436L17.2209 11.4522L17.0785 11.3118L12.6533 15.8032L12.7957 15.9436ZM17.2209 11.4522C17.2998 11.3722 17.3442 11.2636 17.3442 11.1505H17.1442C17.1442 11.2113 17.1202 11.2694 17.0785 11.3118L17.2209 11.4522ZM17.3442 11.1507C17.3444 11.0374 17.3004 10.9289 17.2211 10.8485L17.0786 10.9888C17.1207 11.0315 17.1443 11.0893 17.1442 11.1503L17.3442 11.1507ZM17.2499 10.9186V10.9186H17.0499V10.9186H17.2499Z" fill="#5D6679" mask="url(#path-1-outside-1_136_19)"/>
</svg>
