<svg width="24" height="24" viewBox="0 0 24 24" fill="none" xmlns="http://www.w3.org/2000/svg">
<path fill-rule="evenodd" clip-rule="evenodd" d="M1.25 11C1.25 5.62 5.62 1.25 11 1.25C16.38 1.25 20.75 5.62 20.75 11C20.75 16.38 16.38 20.75 11 20.75C5.62 20.75 1.25 16.38 1.25 11ZM2.75 11C2.75 15.55 6.45 19.25 11 19.25C15.55 19.25 19.25 15.55 19.25 11C19.25 6.45 15.55 2.75 11 2.75C6.45 2.75 2.75 6.45 2.75 11Z" fill="black"/>
<path d="M8.5 11.75C8.09 11.75 7.75 11.41 7.75 11C7.75 10.59 8.09 10.25 8.5 10.25H13.5C13.91 10.25 14.25 10.59 14.25 11C14.25 11.41 13.91 11.75 13.5 11.75H8.5Z" fill="black"/>
</svg>
