<svg width="629" height="493" viewBox="0 0 629 493" fill="none" xmlns="http://www.w3.org/2000/svg">
<path d="M229.975 362.875C159.71 340.958 -1.16251 289.498 29.5114 145.043C64.8874 -21.8223 259.78 91.331 379.336 34.8737C463.958 -5.06712 640.602 -47.1863 627.631 133.137C615.014 308.536 607.776 435.61 505.098 465.763C402.419 495.917 336.236 395.997 229.975 362.875Z" fill="#7A90AA"/>
<path opacity="0.7" d="M229.975 362.875C159.71 340.958 -1.16251 289.498 29.5114 145.043C64.8874 -21.8223 259.78 91.331 379.336 34.8737C463.958 -5.06712 640.602 -47.1863 627.631 133.137C615.014 308.536 607.776 435.61 505.098 465.763C402.419 495.917 336.236 395.997 229.975 362.875Z" fill="white"/>
<path d="M18.0449 490.72H627.632" stroke="#263238" stroke-linecap="round" stroke-linejoin="round"/>
<path d="M122.373 320.632C131.217 328.092 128.269 371.956 155.921 353.083C183.573 334.209 136.464 323.034 139.147 312.336C142.921 297.416 205.138 315.32 194.702 286.674C184.266 258.027 147.062 301.116 137.29 290.448C128.298 280.631 173.079 245.151 152.207 239.124C131.335 233.096 135.772 284.406 122.373 284.406C111.908 284.406 113.868 235.349 94.6323 252.701C75.3966 270.053 117.435 287.166 111.937 297.938C107.751 306.129 74.6596 285.913 76.1483 304.787C77.6371 323.66 112.939 312.739 122.373 320.632Z" fill="#5E90B5"/>
<path d="M128.27 298.192C128.27 298.192 108.164 322.855 110.405 390.069" stroke="#263238" stroke-linecap="round" stroke-linejoin="round"/>
<path d="M167.523 333.15C163.956 325.884 134.373 320.915 151.309 305.145C168.245 289.374 168.186 323.183 175.718 323.049C186.257 322.87 184.209 277.662 201.602 289.33C218.995 300.997 184.415 319.453 189.957 327.793C195.043 335.477 225.731 310.65 226.424 325.824C227.117 340.997 193.731 329.763 191.593 338.909C189.928 346.026 222.827 352.501 208.235 362.781C193.642 373.061 188.97 341.788 180.951 343.817C174.834 345.309 183 371.106 170.707 367.078C158.414 363.049 171.267 340.759 167.523 333.15Z" fill="#5E90B5"/>
<path opacity="0.3" d="M167.523 333.15C163.956 325.884 134.373 320.915 151.309 305.145C168.245 289.374 168.186 323.183 175.718 323.049C186.257 322.87 184.209 277.662 201.602 289.33C218.995 300.997 184.415 319.453 189.957 327.793C195.043 335.477 225.731 310.65 226.424 325.824C227.117 340.997 193.731 329.763 191.593 338.909C189.928 346.026 222.827 352.501 208.235 362.781C193.642 373.061 188.97 341.788 180.951 343.817C174.834 345.309 183 371.106 170.707 367.078C158.414 363.049 171.267 340.759 167.523 333.15Z" fill="black"/>
<path d="M182.808 333.463C182.808 333.463 125.514 327.42 119.854 390.069" stroke="#263238" stroke-linecap="round" stroke-linejoin="round"/>
<path d="M73.4956 326.674C64.6516 334.134 67.5996 377.999 39.9474 359.125C12.2951 340.251 59.4189 329.061 56.7215 318.379C52.9628 303.459 -9.26948 321.363 1.18118 292.716C11.6318 264.07 48.8061 307.174 58.6672 296.491C67.6438 286.689 22.8785 251.209 43.7503 245.166C64.6221 239.124 60.1264 290.463 73.5693 290.463C84.0347 290.463 82.0891 241.392 101.325 258.758C120.56 276.125 78.5072 293.224 84.02 303.996C88.1914 312.187 121.297 291.97 119.809 310.829C118.32 329.688 82.885 318.782 73.4956 326.674Z" fill="#5E90B5"/>
<path opacity="0.3" d="M73.4956 326.674C64.6516 334.134 67.5996 377.999 39.9474 359.125C12.2951 340.251 59.4189 329.061 56.7215 318.379C52.9628 303.459 -9.26948 321.363 1.18118 292.716C11.6318 264.07 48.8061 307.174 58.6672 296.491C67.6438 286.689 22.8785 251.209 43.7503 245.166C64.6221 239.124 60.1264 290.463 73.5693 290.463C84.0347 290.463 82.0891 241.392 101.325 258.758C120.56 276.125 78.5072 293.224 84.02 303.996C88.1914 312.187 121.297 291.97 119.809 310.829C118.32 329.688 82.885 318.782 73.4956 326.674Z" fill="white"/>
<path d="M67.1582 304.235C67.1582 304.235 93.248 339.505 99.2177 398.365" stroke="#263238" stroke-linecap="round" stroke-linejoin="round"/>
<path d="M85.8339 490.466H126.516C130.293 490.483 133.937 489.057 136.721 486.474C139.505 483.891 141.225 480.341 141.536 476.531L147.933 400.439C148.1 398.349 147.838 396.246 147.163 394.264C146.487 392.282 145.414 390.463 144.01 388.921C142.606 387.379 140.902 386.148 139.005 385.306C137.107 384.464 135.059 384.028 132.987 384.027H79.4367C77.3658 384.028 75.3175 384.464 73.4212 385.306C71.5248 386.148 69.8215 387.379 68.4186 388.921C67.0157 390.463 65.9437 392.283 65.2701 394.265C64.5966 396.247 64.3361 398.35 64.5051 400.439L70.9023 476.531C71.2093 480.326 72.9152 483.866 75.6813 486.448C78.4474 489.029 82.0714 490.464 85.8339 490.466Z" fill="#5E90B5" stroke="#263238" stroke-linecap="round" stroke-linejoin="round"/>
<path d="M390.464 381.192C376.859 381.192 337.592 372.24 337.592 372.24H443.337C443.337 372.24 404.054 381.192 390.464 381.192Z" fill="#263238" stroke="#263238" stroke-linecap="round" stroke-linejoin="round"/>
<path d="M402.582 376.701H378.35V393.516H402.582V376.701Z" fill="#926868" stroke="#263238" stroke-linecap="round" stroke-linejoin="round"/>
<path d="M406.164 393.516H374.768V465.803H406.164V393.516Z" fill="#FCF1F1" stroke="#263238" stroke-linecap="round" stroke-linejoin="round"/>
<path d="M449.441 350.77H428.967C431.237 336.536 432.917 322.034 433.949 307.666H454.349C453.376 322.034 451.711 336.536 449.441 350.77Z" fill="#926868" stroke="#263238" stroke-linecap="round" stroke-linejoin="round"/>
<path d="M480.437 180.339H392.469C382.151 180.339 375.356 189.187 377.36 199.601C382.978 231.415 386.338 263.595 387.413 295.894C387.403 298.098 387.826 300.281 388.657 302.318C389.488 304.355 390.71 306.204 392.253 307.759C393.795 309.314 395.628 310.543 397.644 311.375C399.66 312.206 401.819 312.625 403.996 312.605H478.049C482.652 312.558 487.087 310.849 490.554 307.785C494.021 304.721 496.294 300.504 496.961 295.894C500.531 263.932 501.822 231.751 500.823 199.601C500.336 189.187 490.77 180.339 480.437 180.339Z" fill="#926868" stroke="#263238" stroke-linecap="round" stroke-linejoin="round"/>
<path d="M485.228 199.601C486.227 231.751 484.936 263.932 481.366 295.894C480.699 300.504 478.426 304.721 474.959 307.785C471.492 310.849 467.057 312.558 462.455 312.605H403.996C401.819 312.625 399.66 312.206 397.644 311.375C395.628 310.543 393.795 309.314 392.253 307.759C390.71 306.204 389.488 304.355 388.657 302.318C387.826 300.281 387.403 298.098 387.413 295.894C386.343 263.595 382.988 231.415 377.375 199.601C375.371 189.157 382.136 180.339 392.484 180.339H464.842C475.175 180.339 484.741 189.187 485.228 199.601Z" fill="#FCF1F1" stroke="#263238" stroke-linecap="round" stroke-linejoin="round"/>
<path d="M443.337 478.784C443.337 479.181 443.249 479.573 443.08 479.931C442.911 480.289 442.664 480.604 442.359 480.853C442.053 481.103 441.697 481.279 441.315 481.37C440.933 481.461 440.536 481.465 440.153 481.38C430.528 479.261 401.711 473.114 390.464 473.114C379.218 473.114 350.386 479.261 340.761 481.38C340.378 481.465 339.982 481.462 339.601 481.371C339.22 481.28 338.864 481.103 338.559 480.853C338.255 480.604 338.01 480.288 337.843 479.93C337.675 479.572 337.589 479.18 337.592 478.784C337.591 477.189 338.13 475.642 339.12 474.401C340.11 473.16 341.49 472.3 343.031 471.965C354.292 469.518 379.984 464.192 390.464 464.192C400.944 464.192 426.636 469.518 437.898 471.965C439.437 472.303 440.816 473.163 441.805 474.403C442.795 475.644 443.335 477.189 443.337 478.784Z" fill="#263238" stroke="#263238" stroke-linecap="round" stroke-linejoin="round"/>
<path d="M337.579 473.413C335.788 473.41 334.036 473.945 332.545 474.95C331.055 475.956 329.892 477.386 329.205 479.061C328.519 480.735 328.338 482.579 328.687 484.357C329.036 486.135 329.898 487.769 331.164 489.051C332.431 490.333 334.045 491.206 335.802 491.559C337.559 491.912 339.38 491.729 341.034 491.034C342.689 490.339 344.102 489.162 345.095 487.654C346.089 486.145 346.617 484.372 346.614 482.559C346.61 480.134 345.657 477.81 343.964 476.096C342.27 474.381 339.974 473.416 337.579 473.413ZM337.579 487.527C336.607 487.53 335.657 487.241 334.848 486.697C334.039 486.153 333.407 485.378 333.033 484.47C332.66 483.563 332.56 482.563 332.748 481.598C332.936 480.634 333.402 479.747 334.088 479.051C334.774 478.354 335.648 477.88 336.601 477.687C337.554 477.494 338.541 477.591 339.439 477.967C340.337 478.343 341.104 478.979 341.644 479.797C342.184 480.614 342.472 481.575 342.472 482.559C342.472 483.874 341.957 485.135 341.04 486.066C340.123 486.998 338.878 487.523 337.579 487.527Z" fill="#926868" stroke="#263238" stroke-linecap="round" stroke-linejoin="round"/>
<path d="M390.464 473.413C388.67 473.407 386.914 473.941 385.421 474.947C383.927 475.954 382.762 477.387 382.075 479.064C381.388 480.742 381.209 482.589 381.561 484.37C381.912 486.151 382.779 487.786 384.051 489.067C385.323 490.348 386.943 491.218 388.704 491.565C390.465 491.913 392.289 491.722 393.943 491.018C395.597 490.314 397.007 489.129 397.994 487.612C398.981 486.095 399.5 484.315 399.485 482.499C399.466 480.087 398.508 477.781 396.819 476.08C395.13 474.379 392.847 473.42 390.464 473.413ZM390.464 487.527C389.495 487.53 388.547 487.242 387.74 486.701C386.932 486.159 386.3 485.388 385.925 484.484C385.55 483.58 385.447 482.583 385.63 481.62C385.813 480.657 386.273 479.77 386.953 479.072C387.633 478.373 388.502 477.894 389.451 477.694C390.4 477.495 391.385 477.584 392.284 477.95C393.183 478.317 393.954 478.944 394.501 479.753C395.048 480.563 395.346 481.518 395.358 482.499C395.366 483.155 395.245 483.806 395.003 484.415C394.761 485.024 394.402 485.578 393.947 486.045C393.492 486.513 392.95 486.884 392.352 487.139C391.754 487.393 391.113 487.525 390.464 487.527Z" fill="#926868" stroke="#263238" stroke-linecap="round" stroke-linejoin="round"/>
<path d="M442.232 473.413C440.441 473.413 438.691 473.95 437.202 474.957C435.714 475.965 434.554 477.396 433.869 479.071C433.185 480.746 433.006 482.589 433.357 484.366C433.707 486.144 434.57 487.776 435.838 489.056C437.105 490.337 438.719 491.208 440.475 491.56C442.232 491.912 444.052 491.728 445.706 491.033C447.359 490.337 448.772 489.161 449.764 487.652C450.757 486.144 451.285 484.371 451.282 482.559C451.282 481.356 451.048 480.166 450.593 479.055C450.138 477.944 449.471 476.936 448.631 476.086C447.79 475.237 446.792 474.563 445.694 474.104C444.596 473.646 443.42 473.411 442.232 473.413ZM442.232 487.527C441.261 487.527 440.312 487.235 439.505 486.69C438.698 486.144 438.069 485.368 437.697 484.46C437.326 483.552 437.228 482.553 437.418 481.589C437.607 480.625 438.075 479.74 438.761 479.045C439.448 478.351 440.322 477.877 441.274 477.686C442.227 477.494 443.213 477.592 444.11 477.968C445.007 478.344 445.774 478.981 446.313 479.798C446.853 480.615 447.14 481.576 447.14 482.559C447.14 483.876 446.623 485.14 445.703 486.072C444.782 487.003 443.534 487.527 442.232 487.527Z" fill="#926868" stroke="#263238" stroke-linecap="round" stroke-linejoin="round"/>
<path d="M417.263 347.876C381.972 349.009 346.647 347.428 311.592 343.146C309.974 342.85 308.311 342.924 306.725 343.361C305.138 343.797 303.668 344.587 302.421 345.672C301.174 346.757 300.182 348.11 299.517 349.632C298.852 351.154 298.531 352.807 298.577 354.47V356.216C298.662 359.882 300.009 363.402 302.386 366.169C304.762 368.937 308.018 370.778 311.592 371.375C346.647 375.649 381.972 377.231 417.263 376.104V347.876Z" fill="#FCF1F1" stroke="#263238" stroke-linecap="round" stroke-linejoin="round"/>
<path d="M472.685 370.912C450.782 373.687 429.07 375.522 407.019 376.477C405.748 376.518 404.483 376.298 403.299 375.831C402.114 375.365 401.035 374.662 400.125 373.763C399.215 372.865 398.494 371.79 398.005 370.603C397.515 369.415 397.267 368.14 397.276 366.854V358.275C397.302 355.654 398.332 353.145 400.149 351.277C401.967 349.41 404.43 348.329 407.019 348.264C429.129 347.294 450.782 345.459 472.685 342.684C473.885 342.456 475.12 342.503 476.299 342.821C477.479 343.14 478.572 343.722 479.5 344.525C480.428 345.328 481.166 346.332 481.66 347.461C482.154 348.591 482.391 349.819 482.355 351.054V359.633C482.283 362.355 481.28 364.969 479.517 367.026C477.753 369.083 475.339 370.457 472.685 370.912Z" fill="#926868" stroke="#263238" stroke-linecap="round" stroke-linejoin="round"/>
<path d="M326.037 486.975C326.037 481.992 324.961 472.055 319.154 459.149L311.592 431.547L288.008 441.737L294.641 462.879C294.641 462.879 274.374 472.667 266.886 475.307C261.904 477.068 246.987 480.529 247.724 487.005C247.724 487.461 247.812 487.913 247.985 488.335C248.158 488.757 248.411 489.14 248.73 489.463C249.048 489.786 249.427 490.042 249.844 490.216C250.26 490.391 250.707 490.481 251.158 490.481H322.588C323.043 490.483 323.493 490.394 323.914 490.218C324.334 490.042 324.716 489.784 325.037 489.458C325.358 489.131 325.611 488.744 325.783 488.318C325.955 487.892 326.041 487.435 326.037 486.975Z" fill="white" stroke="#263238" stroke-linecap="round" stroke-linejoin="round"/>
<path d="M313.051 470.816C309.366 473.562 289.718 477.038 294.641 473.054C299.564 469.071 294.641 462.864 294.641 462.864C294.641 462.864 274.374 472.652 266.886 475.292C261.904 477.053 246.987 480.514 247.724 486.99C247.724 487.446 247.812 487.898 247.985 488.32C248.158 488.742 248.411 489.125 248.73 489.448C249.048 489.771 249.427 490.027 249.844 490.201C250.26 490.376 250.707 490.466 251.158 490.466H322.588C323.042 490.468 323.492 490.379 323.912 490.203C324.331 490.027 324.712 489.768 325.032 489.442C325.351 489.115 325.603 488.728 325.774 488.302C325.944 487.876 326.028 487.419 326.023 486.96C325.781 479.402 324.255 471.942 321.512 464.908C317.459 464.953 316.736 468.086 313.051 470.816Z" fill="#5E90B5" stroke="#263238" stroke-linecap="round" stroke-linejoin="round"/>
<path d="M343.09 490.466H395.417C395.94 490.465 396.447 490.28 396.85 489.943C397.254 489.605 397.529 489.136 397.628 488.616C398.424 484.409 398.247 474.994 393.53 462.491L393.058 437.127L366.261 441.737L369.651 463.371C369.651 463.371 358.862 475.397 353.732 477.545C350.136 479.037 341.94 479.216 340.849 487.989C340.821 488.304 340.857 488.622 340.957 488.922C341.056 489.221 341.217 489.497 341.428 489.73C341.639 489.963 341.896 490.149 342.182 490.276C342.468 490.403 342.777 490.467 343.09 490.466Z" fill="white" stroke="#263238" stroke-linecap="round" stroke-linejoin="round"/>
<path d="M384.745 470.921C379.218 474.83 375.135 475.293 377.714 469.429C380.294 463.565 369.71 463.357 369.71 463.357C369.71 463.357 358.921 475.382 353.791 477.531C350.195 479.023 341.999 479.202 340.908 487.975C340.871 488.294 340.901 488.618 340.996 488.925C341.092 489.232 341.251 489.515 341.463 489.755C341.675 489.995 341.935 490.186 342.225 490.317C342.516 490.447 342.831 490.513 343.149 490.511H395.476C395.999 490.51 396.506 490.325 396.909 489.988C397.313 489.65 397.588 489.181 397.687 488.661C398.483 484.453 398.306 475.039 393.589 462.536C389.491 463.491 390.228 466.997 384.745 470.921Z" fill="#5E90B5" stroke="#263238" stroke-linecap="round" stroke-linejoin="round"/>
<path d="M337.887 296.76C337.887 296.76 332.61 302.22 311.045 305.712C289.481 309.203 244.715 320.124 245.261 338.028C245.806 355.932 287.034 451.42 287.034 451.42C287.034 451.42 307.67 447.452 317.251 441.484C317.251 441.484 300.639 373.344 288.184 355.44C288.184 355.44 344.092 348.472 375.017 335.552C405.942 322.631 387.752 293.179 387.752 293.179L337.887 296.76Z" fill="#263238" stroke="#263238" stroke-linecap="round" stroke-linejoin="round"/>
<path d="M372.955 294.238C372.955 294.238 380.885 307.666 374.959 315.126C369.034 322.586 335.383 336.507 339.185 353.426C342.988 370.345 355.547 394.202 363.728 450.898C363.728 450.898 382.786 447.914 395.551 442.439C395.551 442.439 397.674 384.758 382.86 359.886C382.86 359.886 425.282 351.934 429.586 337.506C433.89 323.079 425.842 301.027 425.68 293.149L372.955 294.238Z" fill="#263238" stroke="#263238" stroke-linecap="round" stroke-linejoin="round"/>
<path d="M347.454 315.603C346.473 315.529 345.487 315.529 344.506 315.603" stroke="black" stroke-width="0.75" stroke-linecap="round" stroke-linejoin="round"/>
<path d="M349.369 306.697C349.369 306.697 358.08 309.293 361.5 320.796C361.545 320.985 361.529 321.183 361.456 321.363C361.383 321.542 361.256 321.694 361.093 321.796C360.93 321.899 360.739 321.947 360.547 321.933C360.356 321.919 360.174 321.845 360.026 321.721C357.691 319.289 354.815 317.458 351.639 316.38" stroke="black" stroke-width="0.75" stroke-linecap="round" stroke-linejoin="round"/>
<path d="M284.086 354.814C284.086 349.965 263.45 347.354 268.978 342.878C274.505 338.402 287.034 352.949 287.034 352.949" stroke="black" stroke-width="0.75" stroke-linecap="round" stroke-linejoin="round"/>
<path d="M385.483 374.209C385.483 368.659 365.761 365.63 366.749 359.662C367.736 353.694 380.265 365.451 380.265 365.451" stroke="black" stroke-width="0.75" stroke-linecap="round" stroke-linejoin="round"/>
<path d="M284.854 451.764L287.021 456.836C287.14 457.117 287.353 457.347 287.622 457.486C287.891 457.625 288.2 457.664 288.495 457.597C293.256 456.508 313.125 451.764 320.097 446.691C320.3 446.541 320.453 446.332 320.537 446.093C320.621 445.853 320.632 445.594 320.569 445.348L319.213 439.693C319.167 439.498 319.078 439.316 318.951 439.162C318.824 439.008 318.664 438.885 318.482 438.804C318.301 438.723 318.103 438.686 317.905 438.695C317.707 438.705 317.514 438.76 317.341 438.858C314.201 440.589 305.46 444.721 285.724 449.973C285.544 450.023 285.376 450.11 285.232 450.23C285.088 450.35 284.971 450.5 284.889 450.669C284.806 450.839 284.761 451.024 284.755 451.213C284.749 451.401 284.782 451.589 284.854 451.764Z" fill="#FCF1F1" stroke="#263238" stroke-linecap="round" stroke-linejoin="round"/>
<path d="M361.383 447.586C361.359 447.411 361.379 447.233 361.442 447.068C361.505 446.903 361.609 446.757 361.743 446.645C361.878 446.532 362.039 446.457 362.211 446.426C362.383 446.395 362.56 446.409 362.725 446.467C365.12 447.223 367.68 447.26 370.095 446.572C375.563 445.318 391.202 440.305 395.86 438.798C396.013 438.749 396.175 438.737 396.334 438.763C396.492 438.789 396.642 438.853 396.771 438.949C396.901 439.045 397.006 439.17 397.078 439.315C397.15 439.46 397.188 439.62 397.187 439.783V446.378C397.189 446.577 397.132 446.773 397.025 446.94C396.917 447.107 396.763 447.238 396.583 447.318C392.927 448.974 373.338 457.463 363.093 455.151C362.893 455.103 362.713 454.995 362.575 454.84C362.438 454.685 362.352 454.491 362.327 454.285L361.383 447.586Z" fill="#FCF1F1" stroke="#263238" stroke-linecap="round" stroke-linejoin="round"/>
<path d="M377.154 309.427C377.012 311.489 376.268 313.462 375.017 315.096C370.683 320.542 351.624 329.42 343.09 340.46" stroke="black" stroke-linecap="round" stroke-linejoin="round"/>
<path d="M376.227 301.967C376.557 303.066 376.808 304.188 376.978 305.324" stroke="black" stroke-linecap="round" stroke-linejoin="round"/>
<path d="M263.348 478.649C264.55 480.869 265.42 483.258 265.927 485.736H319.153C319.351 483.389 320.401 481.198 322.101 479.589" stroke="#263238" stroke-linecap="round" stroke-linejoin="round"/>
<path d="M355.842 478.649C355.842 478.649 363.212 479.216 365.968 485.736H393.797C394.637 483.789 395.136 481.709 395.271 479.589" stroke="#263238" stroke-linecap="round" stroke-linejoin="round"/>
<path d="M312.211 212.447C312.889 215.073 313.597 217.684 314.304 220.235C321.674 247.091 331.255 298.192 331.255 298.192C378.423 308.263 428.171 298.192 428.171 298.192C428.436 287.062 427.095 272.366 425.606 256.923C433.33 254.76 438.872 247.539 439.226 235.528C439.594 220.981 436.985 194.796 435.541 182.562C434.258 171.805 435.172 165.404 418.708 157.198C410.453 152.379 396.745 150.096 379.897 147.813C346.732 143.337 322.794 150.126 314.304 153.781C307.568 151.991 305.696 159.988 305.696 159.988C301.967 157.138 297.633 169.224 297.633 169.224C286.726 183.308 278.147 207.031 275.287 215.476C274.655 217.322 273.496 218.937 271.956 220.116C264.218 226.084 268.522 233.469 268.522 233.469L284.367 238.378C284.367 238.378 292.047 240.407 297.913 230.187C302.807 221.652 310.825 207.165 312.211 212.447Z" fill="#5E90B5"/>
<mask id="mask0_2002_1672" style="mask-type:luminance" maskUnits="userSpaceOnUse" x="267" y="146" width="173" height="157">
<path d="M312.211 212.447C312.889 215.073 313.597 217.684 314.304 220.235C321.674 247.091 331.255 298.192 331.255 298.192C378.423 308.263 428.171 298.192 428.171 298.192C428.436 287.062 427.095 272.366 425.606 256.923C433.33 254.76 438.872 247.539 439.226 235.528C439.594 220.981 436.985 194.796 435.541 182.562C434.258 171.805 435.172 165.404 418.708 157.198C410.453 152.379 396.745 150.096 379.897 147.813C346.732 143.337 322.794 150.126 314.304 153.781C307.568 151.991 305.696 159.988 305.696 159.988C301.967 157.138 297.633 169.224 297.633 169.224C286.726 183.308 278.147 207.031 275.287 215.476C274.655 217.322 273.496 218.937 271.956 220.116C264.218 226.084 268.522 233.469 268.522 233.469L284.367 238.378C284.367 238.378 292.047 240.407 297.913 230.187C302.807 221.652 310.825 207.165 312.211 212.447Z" fill="white"/>
</mask>
<g mask="url(#mask0_2002_1672)">
<path opacity="0.3" d="M287.285 231.649C287.285 231.649 286.916 224.189 281.02 222.891C275.124 221.593 282.671 219.355 287.285 220.474C291.898 221.593 290.822 217.49 294.773 210.776C298.723 204.062 300.669 198.75 304 202.615C307.331 206.479 310.795 207.091 312.21 212.372C313.625 217.654 306.624 230.276 306.624 230.276L295.628 238.915L290.041 242.078H281.713L278.854 234.782L287.285 231.649Z" fill="black"/>
</g>
<path d="M312.211 212.447C312.889 215.073 313.597 217.684 314.304 220.235C321.674 247.091 331.255 298.192 331.255 298.192C378.423 308.263 428.171 298.192 428.171 298.192C428.436 287.062 427.095 272.366 425.606 256.923C433.33 254.76 438.872 247.539 439.226 235.528C439.594 220.981 436.985 194.796 435.541 182.562C434.258 171.805 435.172 165.404 418.708 157.198C410.453 152.379 396.745 150.096 379.897 147.813C346.732 143.337 322.794 150.126 314.304 153.781C307.568 151.991 305.696 159.988 305.696 159.988C301.967 157.138 297.633 169.224 297.633 169.224C286.726 183.308 278.147 207.031 275.287 215.476C274.655 217.322 273.496 218.937 271.956 220.116C264.218 226.084 268.522 233.469 268.522 233.469L284.367 238.378C284.367 238.378 292.047 240.407 297.913 230.187C302.807 221.652 310.825 207.165 312.211 212.447Z" stroke="#263238" stroke-linecap="round" stroke-linejoin="round"/>
<path opacity="0.3" d="M428.17 298.117C428.208 288.53 427.741 278.948 426.77 269.411C428.377 292.135 381.636 299.251 380.162 286.927C378.688 274.604 425.606 256.849 400.076 263.055C377.804 268.471 334.63 263.294 324.018 261.892C328.101 281.288 331.255 298.117 331.255 298.117C378.423 308.188 428.17 298.117 428.17 298.117Z" fill="black"/>
<path opacity="0.3" d="M406.738 183.979C406.738 183.979 400.061 203.748 400.075 214.192C400.09 224.636 381.37 231.649 381.326 231.649C391.364 229.59 401.122 226.86 405.78 225.487C406.582 225.257 407.28 224.752 407.754 224.057C408.227 223.363 408.447 222.523 408.374 221.682C407.185 209.152 406.639 196.567 406.738 183.979Z" fill="black"/>
<path d="M306.035 179.011C306.098 188.326 307.759 197.56 310.943 206.3C311.035 206.556 311.045 206.835 310.969 207.097C310.894 207.359 310.739 207.59 310.525 207.756C310.311 207.923 310.051 208.016 309.782 208.022C309.512 208.029 309.248 207.948 309.027 207.792C306.492 205.957 302.91 202.227 299.682 194.707" stroke="#263238" stroke-width="0.75" stroke-linecap="round" stroke-linejoin="round"/>
<path d="M431.119 239.929C427.227 226.874 420.491 223.607 415.273 223.279C415.112 223.255 414.961 223.184 414.84 223.075C414.719 222.965 414.632 222.821 414.591 222.662C414.55 222.502 414.557 222.334 414.61 222.179C414.663 222.023 414.76 221.887 414.89 221.787C417.926 220.131 423.837 218.803 431.104 226.949" stroke="#263238" stroke-width="0.75" stroke-linecap="round" stroke-linejoin="round"/>
<path d="M356.341 202.57C356.278 203.119 356.018 203.625 355.611 203.993C355.203 204.361 354.676 204.564 354.13 204.564C353.584 204.564 353.057 204.361 352.649 203.993C352.242 203.625 351.982 203.119 351.919 202.57C351.883 202.254 351.913 201.934 352.008 201.632C352.103 201.329 352.259 201.049 352.468 200.812C352.677 200.575 352.933 200.385 353.219 200.255C353.506 200.125 353.816 200.058 354.13 200.058C354.444 200.058 354.754 200.125 355.041 200.255C355.327 200.385 355.583 200.575 355.792 200.812C356.001 201.049 356.158 201.329 356.252 201.632C356.347 201.934 356.377 202.254 356.341 202.57Z" fill="#FCF1F1" stroke="#263238" stroke-width="0.75" stroke-linecap="round" stroke-linejoin="round"/>
<path d="M359.334 227.964C359.334 228.406 359.204 228.839 358.961 229.207C358.719 229.575 358.373 229.862 357.969 230.031C357.565 230.201 357.121 230.245 356.692 230.159C356.263 230.072 355.869 229.859 355.56 229.546C355.25 229.233 355.04 228.834 354.955 228.4C354.869 227.966 354.913 227.516 355.08 227.107C355.248 226.698 355.531 226.349 355.895 226.103C356.258 225.857 356.686 225.726 357.123 225.726C357.71 225.726 358.272 225.961 358.687 226.381C359.101 226.801 359.334 227.37 359.334 227.964Z" fill="#FCF1F1" stroke="#263238" stroke-width="0.75" stroke-linecap="round" stroke-linejoin="round"/>
<path d="M366.748 289.165C366.751 289.612 366.623 290.049 366.38 290.421C366.138 290.794 365.791 291.085 365.385 291.257C364.978 291.43 364.53 291.477 364.097 291.392C363.665 291.307 363.267 291.093 362.954 290.779C362.641 290.464 362.428 290.063 362.341 289.625C362.254 289.188 362.297 288.734 362.465 288.322C362.633 287.909 362.918 287.556 363.285 287.308C363.651 287.06 364.082 286.927 364.523 286.927C365.11 286.927 365.674 287.163 366.091 287.582C366.508 288.001 366.744 288.571 366.748 289.165Z" fill="#FCF1F1" stroke="#263238" stroke-linecap="round" stroke-linejoin="round"/>
<path d="M324.415 244.599C324.415 244.599 317.178 251.582 320.627 251.701C324.076 251.821 328.425 247.016 332.419 246.464C336.414 245.912 329.957 243.48 329.957 243.48L324.415 244.599Z" fill="white" stroke="#263238" stroke-linecap="round" stroke-linejoin="round"/>
<path d="M366.674 236.737C366.35 236.442 365.969 236.219 365.555 236.08C365.142 235.942 364.705 235.891 364.271 235.931C360.734 236.229 350.563 237.005 346.731 236.766C339.921 236.334 319.86 232.037 319.86 232.037C319.398 231.957 318.925 231.983 318.474 232.111L306.048 235.812C305.596 235.944 305.181 236.185 304.84 236.513L297.322 243.495C297.075 243.729 296.866 244.001 296.703 244.301L295.141 247.196C294.818 247.79 294.697 248.475 294.795 249.146C294.894 249.817 295.206 250.437 295.686 250.911L308.097 251.239C308.864 251.276 309.615 251.008 310.19 250.493L313.875 247.3C314.121 247.084 314.335 246.832 314.509 246.554C315.408 245.062 318.931 240.138 324.385 240.586C324.385 240.586 312.593 246.927 314.818 249.538C317.044 252.149 326.065 244.689 329.013 245.435C331.961 246.181 332.153 253.507 348.175 250.851C348.892 250.728 349.626 250.764 350.327 250.955L364.92 255.088C365.352 255.21 365.805 255.242 366.25 255.184C366.695 255.127 367.125 254.98 367.513 254.752C367.902 254.524 368.241 254.22 368.512 253.857C368.783 253.495 368.98 253.082 369.091 252.641C370.226 248.404 371.228 240.944 366.674 236.737Z" fill="white" stroke="#263238" stroke-linecap="round" stroke-linejoin="round"/>
<path d="M321.6 234.707L318.475 235.245C316.951 235.506 315.528 236.187 314.362 237.214L311.046 240.094C310.481 240.608 309.986 241.195 309.572 241.839L307.434 245.137C307.203 245.501 306.941 245.845 306.653 246.166C305.386 247.658 301.892 251.791 305.666 251.224" fill="white"/>
<path d="M321.6 234.707L318.475 235.245C316.951 235.506 315.528 236.187 314.362 237.214L311.046 240.094C310.481 240.608 309.986 241.195 309.572 241.839L307.434 245.137C307.203 245.501 306.941 245.845 306.653 246.166C305.386 247.658 301.892 251.791 305.666 251.224" stroke="#263238" stroke-linecap="round" stroke-linejoin="round"/>
<path d="M312.799 235.826L309.571 236.722C308.563 236.971 307.637 237.486 306.889 238.214L304.368 240.661C304.12 240.883 303.897 241.134 303.705 241.407L299.563 246.972C299.563 246.972 297.352 250.911 299.563 250.985" fill="white"/>
<path d="M312.799 235.826L309.571 236.722C308.563 236.971 307.637 237.486 306.889 238.214L304.368 240.661C304.12 240.883 303.897 241.134 303.705 241.407L299.563 246.972C299.563 246.972 297.352 250.911 299.563 250.985" stroke="#263238" stroke-linecap="round" stroke-linejoin="round"/>
<path d="M406.856 180.816C406.543 194.456 407.035 208.102 408.33 221.682C408.402 222.523 408.183 223.363 407.709 224.057C407.236 224.752 406.538 225.257 405.736 225.487C394.017 228.994 382.08 231.711 370.006 233.618" stroke="#263238" stroke-linecap="round" stroke-linejoin="round"/>
<path d="M407.563 171.566C407.372 173.058 407.21 174.684 407.092 176.34" stroke="#263238" stroke-width="0.75" stroke-linecap="round" stroke-linejoin="round"/>
<path d="M412.501 157.601C410.821 159.093 409.553 161.793 408.684 165.374" stroke="#263238" stroke-width="0.75" stroke-linecap="round" stroke-linejoin="round"/>
<path d="M338.698 148.738C338.698 148.738 339.627 145.754 344.594 144.068C349.561 142.383 366.792 139.712 375.651 144.068C384.51 148.425 367.544 172.133 367.544 172.133L359.688 183.144L352.686 188.455L349.561 179.011L345.508 174.744C345.508 174.744 336.752 167.478 337.489 160.301C338.226 153.125 338.698 148.738 338.698 148.738Z" fill="white"/>
<path d="M382.195 148.112C380.809 143.203 374.486 141.83 374.486 141.83C344.269 136.608 337.887 147.798 337.887 147.798C334.181 157.906 334.181 169.023 337.887 179.13C337.887 179.13 346.48 175.52 347.954 179.13C349.428 182.741 352.125 190.44 352.125 190.44C356.227 188.1 359.806 184.925 362.635 181.115C367.308 174.893 378.274 181.115 378.274 181.115C385.379 168.686 382.195 148.112 382.195 148.112ZM374.825 147.754C363.121 184.934 352.803 186.546 352.803 186.546C349.369 172.879 346.421 175.863 341.748 167.314C338.004 160.451 339.272 151.767 339.921 148.589C339.997 148.21 340.155 147.853 340.385 147.543C340.614 147.233 340.909 146.979 341.247 146.799C352.862 140.831 367.072 143.024 372.924 144.322C373.286 144.398 373.628 144.55 373.928 144.769C374.227 144.989 374.478 145.269 374.663 145.593C374.848 145.917 374.964 146.277 375.002 146.65C375.04 147.022 375 147.398 374.884 147.754H374.825Z" fill="#5E90B5"/>
<mask id="mask1_2002_1672" style="mask-type:luminance" maskUnits="userSpaceOnUse" x="335" y="140" width="48" height="51">
<path d="M382.195 148.112C380.809 143.203 374.486 141.83 374.486 141.83C344.269 136.608 337.887 147.798 337.887 147.798C334.181 157.906 334.181 169.023 337.887 179.13C337.887 179.13 346.48 175.52 347.954 179.13C349.428 182.741 352.125 190.44 352.125 190.44C356.227 188.1 359.806 184.925 362.635 181.115C367.308 174.893 378.274 181.115 378.274 181.115C385.379 168.686 382.195 148.112 382.195 148.112ZM374.825 147.754C363.121 184.934 352.803 186.546 352.803 186.546C349.369 172.879 346.421 175.863 341.748 167.314C338.004 160.451 339.272 151.767 339.921 148.589C339.997 148.21 340.155 147.853 340.385 147.543C340.614 147.233 340.909 146.979 341.247 146.799C352.862 140.831 367.072 143.024 372.924 144.322C373.286 144.398 373.628 144.55 373.928 144.769C374.227 144.989 374.478 145.269 374.663 145.593C374.848 145.917 374.964 146.277 375.002 146.65C375.04 147.022 375 147.398 374.884 147.754H374.825Z" fill="white"/>
</mask>
<g mask="url(#mask1_2002_1672)">
<path opacity="0.4" d="M382.195 148.112C380.809 143.203 374.486 141.83 374.486 141.83C344.269 136.608 337.887 147.798 337.887 147.798C334.181 157.906 334.181 169.023 337.887 179.13C337.887 179.13 346.48 175.52 347.954 179.13C349.428 182.741 352.125 190.44 352.125 190.44C356.227 188.1 359.806 184.925 362.635 181.115C367.308 174.893 378.274 181.115 378.274 181.115C385.379 168.686 382.195 148.112 382.195 148.112ZM374.825 147.754C363.121 184.934 352.803 186.546 352.803 186.546C349.369 172.879 346.421 175.863 341.748 167.314C338.004 160.451 339.272 151.767 339.921 148.589C339.997 148.21 340.155 147.853 340.385 147.543C340.614 147.233 340.909 146.979 341.247 146.799C352.862 140.831 367.072 143.024 372.924 144.322C373.286 144.398 373.628 144.55 373.928 144.769C374.227 144.989 374.478 145.269 374.663 145.593C374.848 145.917 374.964 146.277 375.002 146.65C375.04 147.022 375 147.398 374.884 147.754H374.825Z" fill="white"/>
</g>
<path d="M382.195 148.112C380.809 143.203 374.486 141.83 374.486 141.83C344.269 136.608 337.887 147.798 337.887 147.798C334.181 157.906 334.181 169.023 337.887 179.13C337.887 179.13 346.48 175.52 347.954 179.13C349.428 182.741 352.125 190.44 352.125 190.44C356.227 188.1 359.806 184.925 362.635 181.115C367.308 174.893 378.274 181.115 378.274 181.115C385.379 168.686 382.195 148.112 382.195 148.112ZM374.825 147.754C363.121 184.934 352.803 186.546 352.803 186.546C349.369 172.879 346.421 175.863 341.748 167.314C338.004 160.451 339.272 151.767 339.921 148.589C339.997 148.21 340.155 147.853 340.385 147.543C340.614 147.233 340.909 146.979 341.247 146.799C352.862 140.831 367.072 143.024 372.924 144.322C373.286 144.398 373.628 144.55 373.928 144.769C374.227 144.989 374.478 145.269 374.663 145.593C374.848 145.917 374.964 146.277 375.002 146.65C375.04 147.022 375 147.398 374.884 147.754H374.825Z" stroke="#263238" stroke-linecap="round" stroke-linejoin="round"/>
<path d="M332.861 91.2964C332.861 91.2964 306.816 96.5781 321.158 113.676C337.062 132.729 332.861 91.2964 332.861 91.2964Z" fill="#263238" stroke="#263238" stroke-linecap="round" stroke-linejoin="round"/>
<path d="M322.587 133.132C322.587 133.132 316.396 107.768 328.188 95.5785C339.98 83.3888 352.76 80.9121 362.341 86.8801C371.922 92.8481 375.902 107.768 374.428 115.467C372.954 123.166 373.661 150.768 360.528 162.211C347.394 173.655 339.317 170.835 330.635 155.244C324.872 145.023 322.145 142.084 322.587 133.132Z" fill="white" stroke="#263238" stroke-linecap="round" stroke-linejoin="round"/>
<path d="M368.238 128.164C368.238 128.164 358.332 118.212 355.296 106.53C352.26 94.8474 350.55 92.8481 339.244 98.5625C327.939 104.277 310.31 96.593 314.923 82.1505C319.773 66.9917 334.586 86.6265 348.825 81.6581C363.064 76.6897 373.19 85.6417 373.205 98.8161C373.205 98.8161 381.813 107.276 373.205 129.148L368.238 128.164Z" fill="#263238" stroke="#263238" stroke-linecap="round" stroke-linejoin="round"/>
<path d="M365.127 126.493C365.127 126.493 367.633 112.587 374.59 113.87C381.547 115.153 376.58 135.683 368.384 133.445" fill="white"/>
<path d="M365.127 126.493C365.127 126.493 367.633 112.587 374.59 113.87C381.547 115.153 376.58 135.683 368.384 133.445" stroke="#263238" stroke-linecap="round" stroke-linejoin="round"/>
<path d="M332.006 131.207C332.006 131.207 329.264 144.113 330.164 146.321C331.063 148.53 339.479 146.844 339.479 146.844" fill="white"/>
<path d="M332.006 131.207C332.006 131.207 329.264 144.113 330.164 146.321C331.063 148.53 339.479 146.844 339.479 146.844" stroke="#263238" stroke-linecap="round" stroke-linejoin="round"/>
<path d="M340.658 152.468C340.658 152.468 347.262 155.109 353.084 146.321Z" fill="white"/>
<path d="M340.658 152.468C340.658 152.468 347.262 155.109 353.084 146.321" stroke="#263238" stroke-linecap="round" stroke-linejoin="round"/>
<path d="M327.481 132.282C327.717 133.475 327.407 134.564 326.788 134.699C326.169 134.833 325.447 133.968 325.196 132.759C324.946 131.551 325.196 130.476 325.889 130.342C326.582 130.208 327.26 131.073 327.481 132.282Z" fill="#263238"/>
<path d="M343.636 130.969C343.887 132.162 343.636 133.251 342.944 133.386C342.251 133.52 341.617 132.64 341.366 131.446C341.116 130.253 341.366 129.163 342.059 129.029C342.752 128.895 343.474 129.76 343.636 130.969Z" fill="#263238"/>
<path d="M330.872 131.715C331.211 135.102 327.924 138.205 323.384 138.653C318.844 139.1 315.012 136.743 314.673 133.356C314.334 129.969 317.857 128.492 322.338 128.029C326.819 127.567 330.548 128.343 330.872 131.715Z" stroke="#263238" stroke-linecap="round" stroke-linejoin="round"/>
<path d="M351.728 129.611C352.067 132.983 348.706 136.101 344.24 136.549C339.774 136.996 335.867 134.624 335.528 131.252C335.189 127.88 338.712 126.373 343.193 125.926C347.674 125.478 351.403 126.224 351.728 129.611Z" stroke="#263238" stroke-linecap="round" stroke-linejoin="round"/>
<path d="M330.871 131.715L335.529 131.252" stroke="#263238" stroke-linecap="round" stroke-linejoin="round"/>
<path d="M351.168 127.91L368.296 117.69" stroke="#263238" stroke-linecap="round" stroke-linejoin="round"/>
<path d="M371.229 143.83L372.039 145.814" stroke="#263238" stroke-linecap="round" stroke-linejoin="round"/>
<path d="M321.217 126.269C321.217 126.269 323.826 122.912 327.024 124.523Z" fill="white"/>
<path d="M321.217 126.269C321.217 126.269 323.826 122.912 327.024 124.523" stroke="#263238" stroke-linecap="round" stroke-linejoin="round"/>
<path d="M347.897 124.762C347.897 124.762 343.313 120.286 338.891 123.449Z" fill="white"/>
<path d="M347.897 124.762C347.897 124.762 343.313 120.286 338.891 123.449" stroke="#263238" stroke-linecap="round" stroke-linejoin="round"/>
<path d="M327.01 83.8365C333.982 86.0745 345.715 88.8197 355.296 85.8805C370.036 81.4045 364.98 98.1149 368.296 102.725" stroke="black" stroke-linecap="round" stroke-linejoin="round"/>
<path d="M320.967 81.5984C320.967 81.5984 322.131 82.1207 324.121 82.8368" stroke="black" stroke-linecap="round" stroke-linejoin="round"/>
<path d="M338.58 92.1469C339.361 91.9082 340.172 91.6247 341.027 91.2964" stroke="black" stroke-linecap="round" stroke-linejoin="round"/>
<path d="M322.588 90.1774C322.588 90.1774 325.713 95.0563 335.765 92.8929" stroke="black" stroke-linecap="round" stroke-linejoin="round"/>
<path d="M360.027 99.7412C360.805 105.5 362.949 110.983 366.277 115.72" stroke="black" stroke-linecap="round" stroke-linejoin="round"/>
<path d="M359.688 94.4595C359.668 95.3507 359.697 96.2423 359.776 97.1302" stroke="black" stroke-linecap="round" stroke-linejoin="round"/>
<path opacity="0.3" d="M372.748 254.521C372.479 254.749 372.286 255.055 372.194 255.397C372.102 255.74 372.117 256.103 372.236 256.437C372.355 256.771 372.573 257.059 372.86 257.264C373.146 257.468 373.488 257.579 373.839 257.58C383.803 257.58 410.689 257.699 421.007 257.087C433.904 256.341 424.058 242.167 413.637 247.569C404.188 252.567 384.083 244.241 372.748 254.521Z" fill="black"/>
<path d="M260.502 240.526C260.502 240.526 266.531 224.278 281.654 226.86C296.777 229.441 285.221 242.257 277.939 243.391C277.939 243.391 276.834 238.93 260.502 240.526Z" fill="white" stroke="#263238" stroke-linecap="round" stroke-linejoin="round"/>
<path d="M247.664 249.747C245.674 251.761 240.884 251.94 244.112 247.569C246.752 244.052 250.333 241.375 254.43 239.855C261.593 236.617 264.394 237.274 270.879 235.826C277.365 234.379 278.588 237.065 280.829 238.303C286.18 241.287 287.462 241.794 288.818 244.778C290.174 247.762 291.648 251.642 287.462 251.642C283.659 251.642 283.408 245.271 279.723 245.524C276.038 245.778 274.196 251.642 271.616 251.642H270.644C268.433 251.642 268.315 249.777 269.656 246.852C270.997 243.928 272.486 241.287 272.486 241.287C270.298 242.454 268.548 244.314 267.504 246.584C265.735 250.388 265.411 251.985 262.153 251.985C258.896 251.985 259.205 249.538 262.36 244.137C260.486 245.273 258.937 246.882 257.864 248.807C256.272 251.791 255.432 251.642 253.354 251.642C250.612 251.642 250.804 247.076 255.653 244.092C255.683 244.092 254.606 242.749 247.664 249.747Z" fill="white" stroke="#263238" stroke-linecap="round" stroke-linejoin="round"/>
<path d="M266.649 238.84C266.649 238.84 264.748 238.751 263.539 242.003Z" fill="white"/>
<path d="M266.649 238.84C266.649 238.84 264.748 238.751 263.539 242.003" stroke="#263238" stroke-width="0.75" stroke-linecap="round" stroke-linejoin="round"/>
<path d="M162.511 490.72H157.042L155.568 271.008H162.511V490.72Z" fill="#926868" stroke="#263238" stroke-linecap="round" stroke-linejoin="round"/>
<path d="M167.966 490.72H162.512V271.008H169.44L167.966 490.72Z" fill="#FCF1F1" stroke="#263238" stroke-linecap="round" stroke-linejoin="round"/>
<path d="M474.645 257.565H99.9395V271.023H474.645V257.565Z" fill="#263238" stroke="#263238" stroke-linecap="round" stroke-linejoin="round"/>
<path d="M552.943 257.565H469.043V271.023H552.943V257.565Z" fill="#926868" stroke="#263238" stroke-linecap="round" stroke-linejoin="round"/>
<path d="M491.64 271.008H119.131V293.179H491.64V271.008Z" fill="#5E90B5" stroke="#263238" stroke-miterlimit="10"/>
<path d="M491.64 293.194H535.02V271.023H491.64V293.194Z" fill="#5E90B5"/>
<mask id="mask2_2002_1672" style="mask-type:luminance" maskUnits="userSpaceOnUse" x="491" y="271" width="45" height="23">
<path d="M491.64 293.194H535.02V271.023H491.64V293.194Z" fill="white"/>
</mask>
<g mask="url(#mask2_2002_1672)">
<path opacity="0.3" d="M491.64 293.194H535.02V271.023H491.64V293.194Z" fill="black"/>
</g>
<path d="M491.64 293.194H535.02V271.023H491.64V293.194Z" stroke="#263238" stroke-miterlimit="10"/>
<path d="M491.641 490.72H486.187L484.713 271.008H491.641V490.72Z" fill="#926868" stroke="#263238" stroke-linecap="round" stroke-linejoin="round"/>
<path d="M497.109 490.72H491.641V271.008H498.583L497.109 490.72Z" fill="#FCF1F1" stroke="#263238" stroke-linecap="round" stroke-linejoin="round"/>
<path d="M119.13 490.72H113.662L112.188 271.008H119.13V490.72Z" fill="#926868" stroke="#263238" stroke-linecap="round" stroke-linejoin="round"/>
<path d="M124.585 490.72H119.131V271.008H126.059L124.585 490.72Z" fill="#FCF1F1" stroke="#263238" stroke-linecap="round" stroke-linejoin="round"/>
<path d="M535.021 490.72H529.552L528.078 271.008H535.021V490.72Z" fill="#926868" stroke="#263238" stroke-linecap="round" stroke-linejoin="round"/>
<path d="M540.473 490.72H535.02V271.008H541.947L540.473 490.72Z" fill="#FCF1F1" stroke="#263238" stroke-linecap="round" stroke-linejoin="round"/>
<path d="M342.073 256.073H298.162C297.731 256.069 297.319 255.893 297.015 255.583C296.711 255.272 296.541 254.853 296.541 254.417V250.746L343.709 252.238V254.417C343.709 254.856 343.537 255.277 343.23 255.588C342.923 255.898 342.507 256.073 342.073 256.073Z" fill="#926868" stroke="#263238" stroke-linecap="round" stroke-linejoin="round"/>
<path d="M291.632 256.073H203.355C202.628 256.045 201.928 255.791 201.35 255.345C200.772 254.899 200.345 254.283 200.127 253.581L181.171 191.305C181.029 190.942 180.979 190.548 181.024 190.16C181.07 189.772 181.21 189.401 181.432 189.082C181.654 188.762 181.952 188.504 182.297 188.329C182.643 188.155 183.025 188.07 183.411 188.082H271.689C272.414 188.107 273.114 188.358 273.692 188.801C274.27 189.245 274.698 189.859 274.917 190.559L293.873 252.835C294.014 253.199 294.064 253.593 294.018 253.982C293.972 254.371 293.832 254.742 293.611 255.062C293.389 255.383 293.092 255.643 292.747 255.819C292.402 255.995 292.019 256.083 291.632 256.073Z" fill="#FCF1F1" stroke="#263238" stroke-linecap="round" stroke-linejoin="round"/>
<path d="M297.779 252.835L278.824 190.559C278.605 189.859 278.177 189.245 277.598 188.802C277.02 188.358 276.321 188.107 275.596 188.082H271.689C272.414 188.107 273.114 188.358 273.692 188.802C274.27 189.245 274.698 189.859 274.918 190.559L293.873 252.835C294.014 253.2 294.064 253.594 294.018 253.982C293.973 254.371 293.833 254.742 293.611 255.062C293.389 255.383 293.092 255.643 292.747 255.819C292.402 255.995 292.019 256.083 291.633 256.073H295.598C295.979 256.073 296.355 255.978 296.692 255.798C297.03 255.617 297.318 255.356 297.533 255.037C297.748 254.718 297.883 254.351 297.926 253.967C297.969 253.583 297.918 253.195 297.779 252.835Z" fill="#926868" stroke="#263238" stroke-linecap="round" stroke-linejoin="round"/>
<path d="M242.99 222.07C243.099 222.764 243.055 223.473 242.862 224.147C242.67 224.822 242.333 225.445 241.876 225.973C241.419 226.502 240.853 226.922 240.217 227.204C239.582 227.486 238.893 227.623 238.2 227.605C236.696 227.567 235.254 226.99 234.131 225.976C233.008 224.963 232.277 223.578 232.068 222.07C231.959 221.377 232.003 220.669 232.196 219.995C232.388 219.321 232.725 218.698 233.183 218.171C233.64 217.644 234.207 217.226 234.842 216.946C235.477 216.665 236.166 216.53 236.858 216.55C238.36 216.59 239.798 217.167 240.92 218.177C242.042 219.187 242.775 220.566 242.99 222.07Z" fill="white" stroke="#263238" stroke-linecap="round" stroke-linejoin="round"/>
</svg>
