<svg width="22" height="22" viewBox="0 0 22 22" fill="none" xmlns="http://www.w3.org/2000/svg">
<path d="M18.1999 21.0004C19.7463 21.0004 20.9999 19.7468 20.9999 18.2004C20.9999 16.654 19.7463 15.4004 18.1999 15.4004C16.6535 15.4004 15.3999 16.654 15.3999 18.2004C15.3999 19.7468 16.6535 21.0004 18.1999 21.0004Z" stroke="#5D6679" stroke-width="1.5" stroke-linecap="round" stroke-linejoin="round"/>
<path d="M3.8 21.0004C5.3464 21.0004 6.6 19.7468 6.6 18.2004C6.6 16.654 5.3464 15.4004 3.8 15.4004C2.2536 15.4004 1 16.654 1 18.2004C1 19.7468 2.2536 21.0004 3.8 21.0004Z" stroke="#5D6679" stroke-width="1.5" stroke-linecap="round" stroke-linejoin="round"/>
<path d="M3.8 6.6C5.3464 6.6 6.6 5.3464 6.6 3.8C6.6 2.2536 5.3464 1 3.8 1C2.2536 1 1 2.2536 1 3.8C1 5.3464 2.2536 6.6 3.8 6.6Z" stroke="#5D6679" stroke-width="1.5" stroke-linecap="round" stroke-linejoin="round"/>
<path d="M13 1L10.6 4.2L13 7.4M17.8 14.6V6.6C17.8 5 17 4.2 15.4 4.2H12.2M4.19995 7.4V14.6" stroke="#5D6679" stroke-width="1.5" stroke-linecap="round" stroke-linejoin="round"/>
</svg>
