<svg width="22" height="22" viewBox="0 0 22 22" fill="none" xmlns="http://www.w3.org/2000/svg">
<path d="M10.8879 0C4.88448 0 0 4.88448 0 10.8879C0 13.5721 0.978208 16.0305 2.59438 17.9305C2.61507 17.9624 2.63881 17.9926 2.66653 18.0203C2.6728 18.0266 2.67982 18.0306 2.68609 18.0364C4.68372 20.3253 7.61869 21.7756 10.888 21.7756C14.1572 21.7756 17.0921 20.3253 19.0899 18.0364C19.0961 18.0308 19.1035 18.0264 19.1094 18.0203C19.1371 17.9926 19.1611 17.962 19.1816 17.9305C20.7977 16.0303 21.7759 13.5718 21.7759 10.8879C21.7759 4.88448 16.8913 0 10.8879 0ZM10.8879 20.687C8.10515 20.687 5.59171 19.5193 3.80638 17.6504L4.55221 16.9046C5.27275 16.1842 6.23045 15.7874 7.24875 15.7874H14.5271C15.5454 15.7874 16.5031 16.1842 17.2235 16.9044L17.9693 17.6502C16.1841 19.5191 13.6707 20.687 10.8879 20.687ZM18.6795 16.8209L17.9933 16.1347C17.0673 15.2087 15.8364 14.6985 14.5271 14.6985H7.24875C5.93939 14.6985 4.70867 15.2087 3.78267 16.1347L3.09648 16.8209C1.83821 15.1728 1.08879 13.1165 1.08879 10.8879C1.08879 5.48482 5.48448 1.08884 10.8879 1.08884C16.291 1.08884 20.687 5.48453 20.687 10.8879C20.687 13.1166 19.9376 15.1729 18.6795 16.8209ZM10.8879 4.8996C8.48662 4.8996 6.53263 6.85334 6.53263 9.25485C6.53263 11.6561 8.48638 13.6101 10.8879 13.6101C13.2891 13.6101 15.2431 11.6564 15.2431 9.25485C15.2431 6.85334 13.2892 4.8996 10.8879 4.8996ZM10.8879 12.5211C9.08677 12.5211 7.62157 11.0559 7.62157 9.2548C7.62157 7.45368 9.08681 5.98848 10.8879 5.98848C12.689 5.98848 14.1542 7.45373 14.1542 9.2548C14.1542 11.0559 12.689 12.5211 10.8879 12.5211Z" fill="#24B8F1"/>
</svg>
